/* XPM */
static char * emacs_4_xpm[] = {
"86 68 438 2",
"  	c None",
". 	c #FFFFFF",
"+ 	c #F3F3F3",
"@ 	c #F6F6F6",
"# 	c #E6E6E6",
"$ 	c #B7B7B7",
"% 	c #BABABA",
"& 	c #F4F4F4",
"* 	c #ACACAC",
"= 	c #AAAAAA",
"- 	c #A9A9A9",
"; 	c #B8B8B8",
"> 	c #F8F8F8",
", 	c #EBEBEB",
"' 	c #C1C1C1",
") 	c #F9F9F9",
"! 	c #F2F2F2",
"~ 	c #B1B1B1",
"{ 	c #A7A7A7",
"] 	c #D1D1D1",
"^ 	c #FDFDFD",
"/ 	c #F5F5F5",
"( 	c #EDEDED",
"_ 	c #E0E0E0",
": 	c #DCDCDC",
"< 	c #DADADA",
"[ 	c #DBDBDB",
"} 	c #E2E2E2",
"| 	c #FAFAFA",
"1 	c #C2C2C2",
"2 	c #A8A8A8",
"3 	c #D2D2D2",
"4 	c #C6C6C6",
"5 	c #B2B2B2",
"6 	c #ABABAB",
"7 	c #AFAFAF",
"8 	c #CBCBCB",
"9 	c #EAEAEA",
"0 	c #DDDDDD",
"a 	c #CACACA",
"b 	c #FCFCFC",
"c 	c #FEFEFE",
"d 	c #D4D4D4",
"e 	c #B0B0B0",
"f 	c #ADADAD",
"g 	c #C0C0C0",
"h 	c #F7F7F7",
"i 	c #F0F0F0",
"j 	c #B9B9B9",
"k 	c #D7D7D7",
"l 	c #CFCFCF",
"m 	c #A6A6A6",
"n 	c #EEEEEE",
"o 	c #B3B3B3",
"p 	c #C3C3C3",
"q 	c #F1F1F1",
"r 	c #B4B4B4",
"s 	c #E1E1E1",
"t 	c #C7C7C7",
"u 	c #C4C4C4",
"v 	c #ECECEC",
"w 	c #BCBCBC",
"x 	c #BBBBBB",
"y 	c #D8D8D8",
"z 	c #BEBEBE",
"A 	c #FBFBFB",
"B 	c #E8E8E8",
"C 	c #B6B6B6",
"D 	c #A8A9A9",
"E 	c #A8A8A9",
"F 	c #BFBFBF",
"G 	c #ABACAC",
"H 	c #B4B3B3",
"I 	c #F7F1EC",
"J 	c #FFF1E7",
"K 	c #FFE2CE",
"L 	c #FFE0CA",
"M 	c #FFEEE2",
"N 	c #FFF8F3",
"O 	c #A9A9AA",
"P 	c #C7C6C5",
"Q 	c #F7E2D2",
"R 	c #F8E1CF",
"S 	c #D7D5D4",
"T 	c #F2EAE4",
"U 	c #FFE9D9",
"V 	c #FFE0C8",
"W 	c #FFEFE3",
"X 	c #FFFCFA",
"Y 	c #FFFEFC",
"Z 	c #FFF6F0",
"` 	c #FFE0C9",
" .	c #FFFAF6",
"..	c #FFFBF9",
"+.	c #FFF1E8",
"@.	c #FFF0E5",
"#.	c #FFF0E6",
"$.	c #FFF5EE",
"%.	c #FFFDFB",
"&.	c #FFFEFD",
"*.	c #FFF8F2",
"=.	c #FFF3E9",
"-.	c #FFEFE5",
";.	c #FFF9F5",
">.	c #FFF4EC",
",.	c #FFF1E6",
"'.	c #FFF0E4",
").	c #FFF4EB",
"!.	c #FFFEFE",
"~.	c #D9D9D9",
"{.	c #AFB2B3",
"].	c #D7CEC7",
"^.	c #FFC8A0",
"/.	c #FF9445",
"(.	c #FF710B",
"_.	c #FF6900",
":.	c #FF6A00",
"<.	c #FF7008",
"[.	c #FF8D3B",
"}.	c #FFD1AE",
"|.	c #D4D3D2",
"1.	c #A8A7A7",
"2.	c #B6B9BC",
"3.	c #F3C7A6",
"4.	c #FF7511",
"5.	c #FF7410",
"6.	c #FFB780",
"7.	c #FF8933",
"8.	c #FF6B01",
"9.	c #FF6C03",
"0.	c #FF740F",
"a.	c #FFB47E",
"b.	c #FEE8D8",
"c.	c #FFBD8C",
"d.	c #FF852D",
"e.	c #FF6C02",
"f.	c #FF700A",
"g.	c #FF9E58",
"h.	c #FFEDDF",
"i.	c #FFB885",
"j.	c #FF710C",
"k.	c #FF7009",
"l.	c #FF8126",
"m.	c #FFBB8B",
"n.	c #FFBE90",
"o.	c #FF8E3D",
"p.	c #FF7512",
"q.	c #FF6D04",
"r.	c #FFAA6D",
"s.	c #FFDCC2",
"t.	c #FF7B1D",
"u.	c #FF6E06",
"v.	c #FF6B00",
"w.	c #FF7C1F",
"x.	c #FFF5ED",
"y.	c #ACACAD",
"z.	c #E3D5CB",
"A.	c #FFA05B",
"B.	c #FF6F08",
"C.	c #FF862F",
"D.	c #FFA768",
"E.	c #FF9447",
"F.	c #FF720D",
"G.	c #FF7613",
"H.	c #FCD8BE",
"I.	c #B0B1B2",
"J.	c #BFC3C5",
"K.	c #FCA76A",
"L.	c #FF6F07",
"M.	c #FF8022",
"N.	c #FF9749",
"O.	c #FF7A1A",
"P.	c #FF730F",
"Q.	c #FF8833",
"R.	c #FF7E20",
"S.	c #FF9748",
"T.	c #FF7614",
"U.	c #FFB279",
"V.	c #D1CECB",
"W.	c #D5D5D6",
"X.	c #FDFEFE",
"Y.	c #FFBA87",
"Z.	c #FF8832",
"`.	c #FF8730",
" +	c #FF8731",
".+	c #FF730E",
"++	c #FFE7D7",
"@+	c #FFEADC",
"#+	c #FF7715",
"$+	c #FF7919",
"%+	c #FF7918",
"&+	c #FF7E21",
"*+	c #FFCBA5",
"=+	c #FFE6D4",
"-+	c #FFAD71",
";+	c #D3CFCC",
">+	c #FFA868",
",+	c #FFAC71",
"'+	c #FFFAF8",
")+	c #FFB782",
"!+	c #FFA25F",
"~+	c #DCE1E4",
"{+	c #C5C1BE",
"]+	c #FF9D55",
"^+	c #FF7411",
"/+	c #FF9C54",
"(+	c #EBDDD2",
"_+	c #D2CCC8",
":+	c #F9DCC8",
"<+	c #FF994F",
"[+	c #EDE3DD",
"}+	c #D4D1CF",
"|+	c #FBD2B3",
"1+	c #FF720E",
"2+	c #FF984A",
"3+	c #D2CCC7",
"4+	c #BDBDBD",
"5+	c #F3F0ED",
"6+	c #FFF8F4",
"7+	c #FFFBF8",
"8+	c #FFB985",
"9+	c #FF6D05",
"0+	c #FFDDC4",
"a+	c #FF9F59",
"b+	c #FF9143",
"c+	c #FFE5D2",
"d+	c #FFF6EF",
"e+	c #FFFDFC",
"f+	c #FFB57F",
"g+	c #FFFCF9",
"h+	c #FFFAF7",
"i+	c #FFF9F4",
"j+	c #FFF7F1",
"k+	c #AEAFB0",
"l+	c #FF6E05",
"m+	c #FF8228",
"n+	c #FFE1CC",
"o+	c #FFDCC4",
"p+	c #FFDCC3",
"q+	c #FFD3B3",
"r+	c #FF720B",
"s+	c #FF9244",
"t+	c #FEFFFF",
"u+	c #EFDED2",
"v+	c #FF8F3D",
"w+	c #EAD5C6",
"x+	c #AEB1B2",
"y+	c #A5A5A5",
"z+	c #E5DBD4",
"A+	c #FF8124",
"B+	c #EFEBE7",
"C+	c #A8A9AA",
"D+	c #A4A5A6",
"E+	c #F0E8E2",
"F+	c #FFA35F",
"G+	c #CAC5C1",
"H+	c #AEAEAE",
"I+	c #E5E2DF",
"J+	c #FFD4B5",
"K+	c #FFB580",
"L+	c #FFA463",
"M+	c #FF9F5A",
"N+	c #FF8935",
"O+	c #FFEEE3",
"P+	c #FFE5D1",
"Q+	c #FF832B",
"R+	c #FFC9A2",
"S+	c #FF720C",
"T+	c #FF9A50",
"U+	c #FFB178",
"V+	c #FFD1B0",
"W+	c #FFF3EA",
"X+	c #CDD2D4",
"Y+	c #FFA15B",
"Z+	c #FF6600",
"`+	c #FF6700",
" @	c #FFAF76",
".@	c #FFE2CC",
"+@	c #FF8025",
"@@	c #FD9245",
"#@	c #D0D8DE",
"$@	c #A7A8A8",
"%@	c #F3E2D7",
"&@	c #FF730D",
"*@	c #FFAB6D",
"=@	c #C5CACE",
"-@	c #A4A4A4",
";@	c #AAADAF",
">@	c #F7D8C2",
",@	c #FFBB88",
"'@	c #B7B5B3",
")@	c #B7B7B8",
"!@	c #ECD3C2",
"~@	c #FFA96A",
"{@	c #FF7714",
"]@	c #FF6800",
"^@	c #FF7817",
"/@	c #FF832A",
"(@	c #FFFAF5",
"_@	c #FFBE8F",
":@	c #FFA667",
"<@	c #FF842B",
"[@	c #FF7816",
"}@	c #FFD0AD",
"|@	c #E0E4E5",
"1@	c #FF8024",
"2@	c #FFC195",
"3@	c #FFD4B3",
"4@	c #FBB27D",
"5@	c #BEC4C9",
"6@	c #ADAEAF",
"7@	c #FFD7BA",
"8@	c #FFCEAA",
"9@	c #B7B9BA",
"0@	c #D5DADE",
"a@	c #FCBD8F",
"b@	c #F8C7A3",
"c@	c #B6B6B7",
"d@	c #F1DED1",
"e@	c #FF8831",
"f@	c #FFB17A",
"g@	c #FFD2B1",
"h@	c #FF7F23",
"i@	c #FF9C55",
"j@	c #FFFCFB",
"k@	c #FFBA88",
"l@	c #FFA462",
"m@	c #FFCDA9",
"n@	c #FFC093",
"o@	c #FF8C39",
"p@	c #E2E5E7",
"q@	c #FF7E22",
"r@	c #FFE2CD",
"s@	c #FF710A",
"t@	c #FAD1B3",
"u@	c #AEB2B5",
"v@	c #BEC1C3",
"w@	c #FFB884",
"x@	c #FEE9DA",
"y@	c #FF9E59",
"z@	c #FF7D1F",
"A@	c #F4D2BA",
"B@	c #F6FAFD",
"C@	c #FFAB6E",
"D@	c #FFF7EF",
"E@	c #FFD5B7",
"F@	c #FF8A37",
"G@	c #FFF7F2",
"H@	c #CCD0D3",
"I@	c #FFA764",
"J@	c #FFCEAB",
"K@	c #FFEFE4",
"L@	c #FFA767",
"M@	c #F0E7E0",
"N@	c #A7A8A9",
"O@	c #D1D6D9",
"P@	c #FF984B",
"Q@	c #FF8A35",
"R@	c #FFEADB",
"S@	c #FFF2EA",
"T@	c #FF964A",
"U@	c #FFCAA4",
"V@	c #FF974C",
"W@	c #FFCFAC",
"X@	c #FFE1CD",
"Y@	c #FFE9D8",
"Z@	c #FFBC8C",
"`@	c #FFB077",
" #	c #ABABAC",
".#	c #FF8F3C",
"+#	c #FFBC8B",
"@#	c #E7ECEF",
"##	c #A5A6A6",
"$#	c #E6E7E9",
"%#	c #FF964B",
"&#	c #FF7B1C",
"*#	c #FF9549",
"=#	c #FFAD73",
"-#	c #FF9D56",
";#	c #FF984F",
">#	c #FFDBC1",
",#	c #FF9A51",
"'#	c #FFC79F",
")#	c #FFA96B",
"!#	c #FF9141",
"~#	c #C9C9C9",
"{#	c #B5B5B6",
"]#	c #E2D1C5",
"^#	c #FFC194",
"/#	c #FF9E56",
"(#	c #FF862E",
"_#	c #FF7E23",
":#	c #FF7D20",
"<#	c #FF7D21",
"[#	c #FF842C",
"}#	c #FFD0AF",
"|#	c #FF7A19",
"1#	c #E1E4E5",
"2#	c #A5A5A6",
"3#	c #E6E7E7",
"4#	c #FF913F",
"5#	c #FF7F22",
"6#	c #FCC9A4",
"7#	c #FEFDFC",
"8#	c #FF8B37",
"9#	c #FFC8A1",
"0#	c #FFAE72",
"a#	c #FF9A52",
"b#	c #FFAC6F",
"c#	c #FFEDE0",
"d#	c #B7B6B5",
"e#	c #CDC8C4",
"f#	c #FDF4EE",
"g#	c #FFF6EE",
"h#	c #FFF7F0",
"i#	c #FFFFFD",
"j#	c #E0D8D3",
"k#	c #E7DDD5",
"l#	c #BFBDBB",
"m#	c #FFFDFA",
"n#	c #FFF2E7",
"o#	c #FFF2E9",
"p#	c #FFF6F1",
"q#	c #E7E7E7",
"r#	c #D6D6D6",
"s#	c #A2A2A2",
"t#	c #CDCDCD",
"u#	c #EFEFEF",
"v#	c #E5E5E5",
"w#	c #E9E9E9",
"x#	c #C8C8C8",
"y#	c #D0D0D0",
"z#	c #B5B5B5",
"A#	c #CECECE",
"B#	c #E4E4E4",
"C#	c #DEDEDE",
"D#	c #D5D5D5",
"E#	c #D3D3D3",
". . . . . . . . . . . . . . . . . . . . . . . . . . . . . . . . . . . . . . . . . . . . . . . . . . . . . . . . . . . . . . . . . . . . . . . . . . . . . . . . . . . . . . ",
". . . . . . . . . . . . . . . . . . . . . . . . . . . . . . . . . . . . . . . . . . . . . . . . . . . . . . . . . . . . . . . . . . . . . . . . . . . . . . . . . . . . . . ",
". . . . . . . . . . . . . . . . . . . . . . . . . . . . . . . . . . . . . . . . . . . . . . . . . . . . . . . . . . . . . . . . . . . . . . . . . . . . . . . . . . . . . . ",
". . . . . . . . . . . . . . . . . . . . . . . . . . . . . . . . . . . . . . . . . . . . . . . . . . . . . . . . . . . . . . . . . . . . . . . . . . . . . . . . . . . . . . ",
". . . . . . . . . . . . . . . . . . . . . . . . . . . . . . . . . . . . . . . . . . . . . . . . . . . . . . . . . . . . . . . . . . . . . . . . . . . . . . . . . . . . . . ",
". . . . . . . . . . . . . . . . . . . . . . . . . . . . . . . . . . . . . . . . . . . . . . . . . . . . . . . . . . . . . . . . . . . . . . . . . . . . . . . . . . . . . . ",
". . . . . . . . . . . . . . . . . . . . . . . . . . . . . . . . . . . . . . . . . . . . . . . . . . . . . . . . . . . . . . . . . . . . . . . . . . . . . . . . . . . . . . ",
". . . . . . . . . . . . . . . . . . . . . . . . . . . . . . . . . . . . . . . . . . . . . . . . . . . . . . . . . . . . . . . . . . . . . . . . . . . . . . . . . . . . . . ",
". . . . . . . . . . . . . . . . . . . . . . . . . . . . . . . . . . . . . . . . . . . . . . . . . . . . . . . . . . . . . . . . . . . . . . . . . . . . . . . . . . . . . . ",
". . . . . . . . . . . . . . . . . . . . . . . . . . . . . . . . . . . . . . . . . . . . . . . . . . . . . . . . . . . . . . . . . . . . . . . . . . . . . . . . . . . . . . ",
". . . . . . . . . . . . . . . . . . . . . . . . . . . . . . . . . . . . . . . . . . . . . . . . . . . . . . . . . . . . . . . . . . . . . . . . . . . . . . . . . . . . . . ",
". . . . . . . . . . . . . . . . . . . . . . . . . . . . . . . . . . . . . . . . . . . . . . . . . . . . . . . . . . . . . . . . . . . . . . . . . . . . . . . . . . . . . . ",
". . . . . . . . . . . . . . . . . . . . . . . . . . . . . . . . . . . . . . . . . . . . . . . . . . . . . . . . . . . . . . . . . . . . . . . . . . . . . . . . . . . . . . ",
". . . . . . . . . . . . . . . . . . + @ . . . . . . . . . . . . . . . . . . . . . . . . . . . . . . . . . . . . . . . . . . . . . . . . . . . . . . . . . . . . . . . . . . ",
". . . . . . . . . . . . . . . . . # $ % & . . . . . . . . . . . . . . . . . . . . . . . . . . . . . . . . . . . . . . . . . . . . . . . . . . . . . . . . . . . . . . . . . ",
". . . . . . . . . . . . . . . . # * = - ; > . . . . . . . . . . . . . . . . . . . . . . . . . . . . . . . . . . . . . . . . . . . . . . . . . . . . . . . . . . . . . . . . ",
". . . . . . . . . . . . . . . , - = = = = ' ) . . . . . . . . . . . . . . . . . . . . . . . . . . . . . . . . . . . . . . . . . . . . . . . . . . . . . . . . . . . . . . . ",
". . . . . . . . . . . . . . ! ~ = = = = = { ] ^ . . . . . . . / ( # _ : < [ } , @ . . . . . . . . . . . . . . . . . . . . . . . . . . . . . . . . . . . . . . . . . . . . . ",
". . . . . . . . . . . . . | 1 = = = = = = 2 3 ^ . . . . | : 4 % 5 6 - { { { - 7 % 8 9 . . . . . . . . . . . . . . . . . . . . . . . . . . . . . . . . . . . . . . . . . . . ",
". . . . . . . . . . . . . 0 - = = = = = = a b . . . c d e * = = = = = = = = = = = = f g + . . . . . . . . . . . . . . . . . . . . . . . . . . . . . . . . . . . . . . . . . ",
". . . . . . . . . . . . h 5 - = = = = - g . . . . i j 2 = = = = = = = = = = = = = = = - 6 k b . . . . . . . . . . . . . . . . . . . . . . . . . . . . . . . . . . . . . . . ",
". . . . . . . . . . . . l m = = = = 2 % b . . . n o { = = = = = = = = = = = = = = = = = = { p i . . . . . . . . . . . . . . . . . . . . . . . . . . . . . . . . . . . . . . ",
". . . . . . . . . . . & = = = = = - e q . . . ^ $ { = = = = = = 2 m m { - - m { = = = = = = { r s . . . . . . . . . . . . . . . . . . . . . . . . . . . . . . . . . . . . . ",
". . . . . . . . . . . t - = = = = 2 < . . . . k 2 = = = = = - - u 0 ( @ ) > 9 a - - = = = = = = e v . . . . . . . . . . . . . . . . . . . . . . . . . . . . . . . . . . . . ",
". . . . . . . . . . @ 7 = = = = = w h . . . . $ = = = = = = 4 ) . . . . . . . . @ ' 6 = = = = = x ) . . . . . . . . . . . . . . . . . . . . . . . . . . . . . . . . . . . . ",
". . . . . . . . . . y 6 = = = = 6 [ . . . . | e = = = = = z A . . . . . . . . . . . y 7 - - 6 a ^ . . . . . . . . . . . . . . . . . . . . . . . . . . . . . . . . . . . . . ",
". . . . . . . . . ^ p = = = = = r ^ . . . . h 7 = = = = = a . . . . . . . . . . . . . B e * [ c . . . . . . . . . . . . . . . . . . . . . . . . . . . . . . . . . . . . . . ",
". . . . . . . . . q C = = = = 2 d . . . . . | e = = - D E F A . . . . . . . . . . . . . h + c . . . . . . . . . . . . . . . . . . . . . . . . . . . . . . . . . . . . . . . ",
". . . . . . . . . # 6 = = = G H I J K L M N . $ = O P Q R S T U V W X . Y Z U ` M  .. . . . ..+.@.@.@.@.#.$.%.. . . . &.*.=.@.@.@.@.-.;.. . .  .>.,.@.@.@.'.).!.. . . . . . ",
". . . . . . . . c ~.{ = = {.].^./.(._.:.<.[.}.|.1.2.3.4.5.6.7.8.9.0.a.b.c.d.e.9.f.g.h.> . . i.j.e.9.9.e.k.l.m.X . . #.n.o.p.q.q.q.q.:.r.. . s.g.t.u.9.9.9.v.w.x.. . . . . . ",
". . . . . . . . ^ a 2 = y.z.A.5.B.C.D.E.B.F.G.H.I.J.K.p.4.L.M.N.O.P.p.Q.u.R.S.T.p.k.U.V.W.X.Y.Z.`.`.`. +G..+(.++. @+E.F.f.u.#+$+$+%+&+*+. =+d.F.G.`. +`.`. +-+ .. . . . . . ",
". . . . . . . . A F 2 2 ;+>+.+F.,+'+X X )+B.(.!+~+{+]+^+p./+(+_+:+P.4..+<+[+}+|+(.1+2+3+- 4+5+*.6+ .7+&.8+B.9+0+..a+.+P.b+c+x.>.>.>.d+e+. ^.j.F.f+. g+h+i+j+... . . . . . . ",
". . . . . . . . | $ 2 k+0+l+5.m+n+o+p+p+q+r+F.s+t+u+v+^+R.w+x+y+z+A+P.$+B+C+D+E+<.F.F+G+- H+I+J J+K+L+M+N+P.f.O+P+u.P.Q+. . . . . . . . . R+S+4.P.l.T+U+V+W+&.. . . . . . . ",
". . . . . . . . | ~ m X+Y+(.p.L.Z+Z+Z+Z+`+k.e. @. .@+@5.@@#@{ $@%@&@f.*@=@-@;@>@f.f.,@'@)@!@~@{@]@u.^@&+T.P./@(@_@L.k.a.. . . . . . . . . @.:@<@[@k.9.q.9+&+}@&.. . . . . . ",
". . . . . . . . ) 7 y+|@1@P.0.2@^.^.^.^.^.^.R+J . 3@^+F.4@5@2 6@7@q.u.8@9@4 0@a@F..+b@c@d@e@k.$+f@g@0+=+h@(.i@j@k@B.(.l@. . . . . . . . . . 7+c+7@m@n@!+^+j.o@*.. . . . . . ",
". . . . . . . . ) ~ y+p@q@5.9+r@. . . . . . . . &.n.s@(.t@u@2 v@w@<.u.x@) b t+y@P.z@A@B@C@k.^+K %.. . D@j.k.K+&.0+9.4.p.E@. . . . . . . . . . . . . !.. 1@S+F@G@. . . . . . ",
". . . . . . . . | C m H@I@(.5.&+J@K@).).).>.h+. 7+L@(.(.M@N@{ O@P@(.&+$.. . . `.^+Q@R@. Q@F.^@U  . .S@T@5.S+U@.  .V@.+p.P.g.W@X@Y@'.7+. 7+>.).).).).=.Z@S+j.`@X . . . . . . ",
". . . . . . . . A z 2  #u+.#S+(.9.u.F..+.+(.+#e+*.[.f.l.@#y+##$#%+k.%#;.. . @.&#P.*#*.. =#l+F.z@-#;#T.p.^+$+>#. . R@,#p.s@B.9.9.9.v.'#. )#5..+.+.+.+L.q.S+!#R@. . . . . . . ",
". . . . . . . . ^ ~#2 - {#]#^#/#(#_#:#<#:#[#}#&.;.i@|#^.1#y+2#3#4#5#6#7#. . >.8#h@9#. . W+0#+@S+F.<@a.i.f.a#W+. . . $.V+b#!#/@_#m+V@K . <+t.<#<#<#&+/@V@_@c#. . . . . . . . ",
". . . . . . . . . ~.{ = = y.d#e#f#d+g#g#g#h#e+. . N x.i#y m - 5 j#k#l#> . . . Z $.%.. . . m#$.n#o#p#%.X +.N . . . . . . g+N Z g#Z ;.!.. ;.g#g#g#g#d+Z ;.&.. . . . . . . . . ",
". . . . . . . . . q#* = = = = { r#. . . . . . . . . . . l { = = 2 { = > . . . . . . . . A v ) . . . . . . . . . . . . . . . . . . . . . . . . . . . . . . . . . . . . . . . ",
". . . . . . . . . & j = = = = = 5 > . . . . . . . . . . u 2 = = = - o | . . . . . . . h 4 s#1 @ . . . . . . . . . . . . . . . . . . . . . . . . . . . . . . . . . . . . . . ",
". . . . . . . . . . 8 = = = = = = t#. . . . . . . . . . 4+2 = = = - x A . . . . . . u#4+{ = { w ! . . . . . . . . . . . . . . . . . . . . . . . . . . . . . . . . . . . . . ",
". . . . . . . . . . , f = = = = = f v#. . . . . . . . . % 2 = = = 2 F A . . . . . w#o = = = = = r u#. . . . . . . . . . . . . . . . . . . . . . . . . . . . . . . . . . . . ",
". . . . . . . . . . . u - = = = = - 7 n . . . . . . . . j - = = = 2 4+A . . . ^ ~.- - = = = = = 6 r#. . . . . . . . . . . . . . . . . . . . . . . . . . . . . . . . . . . . ",
". . . . . . . . . . . h ~ - = = = = - H+s b . . . . . . 4+2 = = = - e @ . > q#g m = = = = = = 2 t A . . . . . . . . . . . . . . . . . . . . . . . . . . . . . . . . . . . . ",
". . . . . . . . . . . . # = - = = = = - 6 u v#. . . . . a { = = = = 2 z x#4+f 2 = = = = = = m y#b . . . . . . . . . . . . . . . . . . . . . . . . . . . . . . . . . . . . . ",
". . . . . . . . . . . . c ~.- = = = = = = = f z#A#B#/ c B#y+= = = = = = = = = = = = = = = = y ^ . . . . . . . . . . . . . . . . . . . . . . . . . . . . . . . . . . . . . . ",
". . . . . . . . . . . . . . y#* = = = = = = = = - { { = H+= = = = = = = = = = = = = = = e C#. . . . . . . . . . . . . . . . . . . . . . . . . . . . . . . . . . . . . . . . ",
". . . . . . . . . . . . . . . k e 2 = = = = = = = = = = = = = = = = = = = = = = = - = g n . . . . . . . . . . . . . . . . . . . . . . . . . . . . . . . . . . . . . . . . . ",
". . . . . . . . . . . . . . . . , F { - = = = = = = = = = = = = = = = = = = = = { r 0 A . . . . . . . . . . . . . . . . . . . . . . . . . . . . . . . . . . . . . . . . . . ",
". . . . . . . . . . . . . . . . . A C#7 2 = = = = = = = = = = = = = = = = = 2 * D#) . . . . . . . . . . . . . . . . . . . . . . . . . . . . . . . . . . . . . . . . . . . . ",
". . . . . . . . . . . . . . . . . . . . < ; H+* = = = = = = = = = = = 6 H+z#D#b . . . . . . . . . . . . . . . . . . . . . . . . . . . . . . . . . . . . . . . . . . . . . . ",
". . . . . . . . . . . . . . . . . . . . . . n ~.~#g % z#5 e ~ 5 C x u E#B c . . . . . . . . . . . . . . . . . . . . . . . . . . . . . . . . . . . . . . . . . . . . . . . . ",
". . . . . . . . . . . . . . . . . . . . . . . . . A / q n v v ( q h c . . . . . . . . . . . . . . . . . . . . . . . . . . . . . . . . . . . . . . . . . . . . . . . . . . . ",
". . . . . . . . . . . . . . . . . . . . . . . . . . . . . . . . . . . . . . . . . . . . . . . . . . . . . . . . . . . . . . . . . . . . . . . . . . . . . . . . . . . . . . ",
". . . . . . . . . . . . . . . . . . . . . . . . . . . . . . . . . . . . . . . . . . . . . . . . . . . . . . . . . . . . . . . . . . . . . . . . . . . . . . . . . . . . . . ",
". . . . . . . . . . . . . . . . . . . . . . . . . . . . . . . . . . . . . . . . . . . . . . . . . . . . . . . . . . . . . . . . . . . . . . . . . . . . . . . . . . . . . . ",
". . . . . . . . . . . . . . . . . . . . . . . . . . . . . . . . . . . . . . . . . . . . . . . . . . . . . . . . . . . . . . . . . . . . . . . . . . . . . . . . . . . . . . ",
". . . . . . . . . . . . . . . . . . . . . . . . . . . . . . . . . . . . . . . . . . . . . . . . . . . . . . . . . . . . . . . . . . . . . . . . . . . . . . . . . . . . . . ",
". . . . . . . . . . . . . . . . . . . . . . . . . . . . . . . . . . . . . . . . . . . . . . . . . . . . . . . . . . . . . . . . . . . . . . . . . . . . . . . . . . . . . . ",
". . . . . . . . . . . . . . . . . . . . . . . . . . . . . . . . . . . . . . . . . . . . . . . . . . . . . . . . . . . . . . . . . . . . . . . . . . . . . . . . . . . . . . ",
". . . . . . . . . . . . . . . . . . . . . . . . . . . . . . . . . . . . . . . . . . . . . . . . . . . . . . . . . . . . . . . . . . . . . . . . . . . . . . . . . . . . . . ",
". . . . . . . . . . . . . . . . . . . . . . . . . . . . . . . . . . . . . . . . . . . . . . . . . . . . . . . . . . . . . . . . . . . . . . . . . . . . . . . . . . . . . . ",
". . . . . . . . . . . . . . . . . . . . . . . . . . . . . . . . . . . . . . . . . . . . . . . . . . . . . . . . . . . . . . . . . . . . . . . . . . . . . . . . . . . . . . ",
". . . . . . . . . . . . . . . . . . . . . . . . . . . . . . . . . . . . . . . . . . . . . . . . . . . . . . . . . . . . . . . . . . . . . . . . . . . . . . . . . . . . . . ",
". . . . . . . . . . . . . . . . . . . . . . . . . . . . . . . . . . . . . . . . . . . . . . . . . . . . . . . . . . . . . . . . . . . . . . . . . . . . . . . . . . . . . . ",
". . . . . . . . . . . . . . . . . . . . . . . . . . . . . . . . . . . . . . . . . . . . . . . . . . . . . . . . . . . . . . . . . . . . . . . . . . . . . . . . . . . . . . "};
