/* XPM */
static char * emacs_3_xpm[] = {
"86 68 282 2",
"  	c None",
". 	c #AAAAAA",
"+ 	c #A9A9A9",
"@ 	c #ABABAB",
"# 	c #B6B6B6",
"$ 	c #F5F5F5",
"% 	c #F8E3D4",
"& 	c #FBD5BA",
"* 	c #FBD3B6",
"= 	c #F8DDCA",
"- 	c #FDFCFA",
"; 	c #C4C4C4",
"> 	c #F2DAC8",
", 	c #F4D8C5",
"' 	c #CDCDCD",
") 	c #F2EDEB",
"! 	c #F7DCC8",
"~ 	c #FCD5B7",
"{ 	c #F8E1D0",
"] 	c #FCF7F4",
"^ 	c #F7D8C1",
"/ 	c #F8DECB",
"( 	c #FFFFFF",
"_ 	c #F8E3D3",
": 	c #FADBC6",
"< 	c #F8E2D2",
"[ 	c #FCF8F3",
"} 	c #F8E5D9",
"| 	c #F8DBC6",
"1 	c #F8DCC8",
"2 	c #FCF7F2",
"3 	c #FBF3EC",
"4 	c #F7E0D0",
"5 	c #F9E8DD",
"6 	c #ACACAC",
"7 	c #D9D8D7",
"8 	c #FEC69D",
"9 	c #FA842E",
"0 	c #FF7512",
"a 	c #FB8027",
"b 	c #FECDAB",
"c 	c #D6D6D6",
"d 	c #ADADAD",
"e 	c #FAD5BB",
"f 	c #FF7613",
"g 	c #FFBB8B",
"h 	c #FB7E24",
"i 	c #FDAB70",
"j 	c #F2EDE9",
"k 	c #FEBD8E",
"l 	c #FB7A1E",
"m 	c #FA9044",
"n 	c #F4E6DD",
"o 	c #FD7717",
"p 	c #FEB480",
"q 	c #FBF3EE",
"r 	c #FFBA89",
"s 	c #FA7E26",
"t 	c #FDA361",
"u 	c #FADECA",
"v 	c #FB954A",
"w 	c #FE7513",
"x 	c #FE7716",
"y 	c #F9E9DF",
"z 	c #E4DED9",
"A 	c #FB964D",
"B 	c #FA791D",
"C 	c #FB9348",
"D 	c #FA8129",
"E 	c #FCD5B9",
"F 	c #AFAFAF",
"G 	c #BDBDBD",
"H 	c #FFB37C",
"I 	c #FA7B21",
"J 	c #FD7B1D",
"K 	c #FE7614",
"L 	c #FDA566",
"M 	c #C9C9C9",
"N 	c #FEB581",
"O 	c #FD7615",
"P 	c #FAD9C3",
"Q 	c #FB8936",
"R 	c #FE7615",
"S 	c #FFC69C",
"T 	c #F9EAE0",
"U 	c #FB791C",
"V 	c #FB9A54",
"W 	c #FDFAF8",
"X 	c #D3D2D2",
"Y 	c #FC9B56",
"Z 	c #FEA768",
"` 	c #FDFAF7",
" .	c #FEA767",
"..	c #FDA05C",
"+.	c #D7D7D7",
"@.	c #FA9348",
"#.	c #FB9044",
"$.	c #EDDED4",
"%.	c #DADADA",
"&.	c #F8CDAF",
"*.	c #FC954B",
"=.	c #ECE0D7",
"-.	c #FAC9A6",
";.	c #F8822D",
">.	c #D5D5D5",
",.	c #FFAC70",
"'.	c #FDD0B1",
").	c #FFFDFD",
"!.	c #FB9347",
"~.	c #FB8D3D",
"{.	c #FCD2B3",
"].	c #F7DFCE",
"^.	c #F5DFCD",
"/.	c #F9F0E9",
"(.	c #FFC69D",
"_.	c #FFB47F",
":.	c #B0B0B0",
"<.	c #FBD0B2",
"[.	c #FC7C21",
"}.	c #FFCFAD",
"|.	c #FFD1B0",
"1.	c #FFBE8F",
"2.	c #FA8F43",
"3.	c #E6E4E4",
"4.	c #EDDFD6",
"5.	c #E6DCD5",
"6.	c #FB7719",
"7.	c #EAE0D8",
"8.	c #EADACF",
"9.	c #F98E42",
"0.	c #CFCFCF",
"a.	c #E6E6E6",
"b.	c #F9EADF",
"c.	c #FECDAA",
"d.	c #FFB27B",
"e.	c #FFA768",
"f.	c #FC9A53",
"g.	c #FD832C",
"h.	c #FADCC7",
"i.	c #FCD6BB",
"j.	c #FA8028",
"k.	c #FFC49A",
"l.	c #FA8027",
"m.	c #FB964C",
"n.	c #FFAD73",
"o.	c #FEC9A3",
"p.	c #CACACA",
"q.	c #FC9C57",
"r.	c #FEA869",
"s.	c #FC9B55",
"t.	c #F0D7C4",
"u.	c #FDA260",
"v.	c #C7C7C7",
"w.	c #F4D5BE",
"x.	c #FFAE75",
"y.	c #BFBFBF",
"z.	c #B5B5B5",
"A.	c #F4E1D2",
"B.	c #FC9B54",
"C.	c #FD7616",
"D.	c #FEF8F4",
"E.	c #FFBA88",
"F.	c #FFAC71",
"G.	c #F9F1EA",
"H.	c #FCA15F",
"I.	c #FC7819",
"J.	c #FECCA7",
"K.	c #D9D9D9",
"L.	c #F97D24",
"M.	c #FFBF90",
"N.	c #FFC399",
"O.	c #F9EBDF",
"P.	c #FECEAD",
"Q.	c #AEAEAE",
"R.	c #FECAA4",
"S.	c #B2B2B2",
"T.	c #FFC59B",
"U.	c #FEC8A2",
"V.	c #B1B1B1",
"W.	c #F6E3D4",
"X.	c #FA7B20",
"Y.	c #FEA462",
"Z.	c #FECAA5",
"`.	c #FADAC3",
" +	c #FCE6D7",
".+	c #FB8026",
"++	c #F98A39",
"@+	c #FFB682",
"#+	c #FEA15D",
"$+	c #F9ECE1",
"%+	c #FCD5BA",
"&+	c #FA8F42",
"*+	c #F97B21",
"=+	c #FDD1B2",
"-+	c #F9D2B6",
";+	c #BEBEBE",
">+	c #FFB077",
",+	c #F8D6BD",
"'+	c #FFAA6D",
")+	c #FEA96B",
"!+	c #F9E5D7",
"~+	c #FFAB6E",
"{+	c #FDD1B1",
"]+	c #FD7514",
"^+	c #FCD3B5",
"/+	c #FFFEFE",
"(+	c #FA7A1F",
"_+	c #FA7A1E",
":+	c #C8C8C8",
"<+	c #FDA362",
"[+	c #FAD8C1",
"}+	c #F8E0D0",
"|+	c #F8E3D2",
"1+	c #FDFBFA",
"2+	c #FC984F",
"3+	c #EDE0D6",
"4+	c #FAF0EA",
"5+	c #F98938",
"6+	c #FCF6F2",
"7+	c #F88735",
"8+	c #FADAC2",
"9+	c #F9E4D4",
"0+	c #FE9347",
"a+	c #FFC59C",
"b+	c #FCF8F5",
"c+	c #FB8E3F",
"d+	c #FC9850",
"e+	c #FFC093",
"f+	c #FAD3B8",
"g+	c #FDF9F7",
"h+	c #F8E4D7",
"i+	c #F8DAC5",
"j+	c #FEB17A",
"k+	c #EDDED3",
"l+	c #FA822C",
"m+	c #FEAD74",
"n+	c #E9E9E9",
"o+	c #DEDDDD",
"p+	c #FC781A",
"q+	c #F98430",
"r+	c #F8F8F8",
"s+	c #FDA769",
"t+	c #F88633",
"u+	c #F8832D",
"v+	c #FAD9C2",
"w+	c #F9E9DE",
"x+	c #FB9246",
"y+	c #FC9D59",
"z+	c #FA852F",
"A+	c #E5DDD7",
"B+	c #FFBD8E",
"C+	c #F98D3F",
"D+	c #FECFAC",
"E+	c #FB8732",
"F+	c #CCCCCC",
"G+	c #DCDAD9",
"H+	c #FB822C",
"I+	c #FEC7A0",
"J+	c #FCF6F1",
"K+	c #FB7F25",
"L+	c #FECDA8",
"M+	c #FAEFE7",
"N+	c #FEAB6E",
"O+	c #FA8938",
"P+	c #FEA667",
"Q+	c #F9812B",
"R+	c #FC7718",
"S+	c #FA8A39",
"T+	c #FBE0CB",
"U+	c #FA8B3A",
"V+	c #FFC194",
"W+	c #F9EEE8",
"X+	c #B9B9B9",
"Y+	c #D1D1D1",
"Z+	c #F9F9F9",
"`+	c #FBF4F0",
" @	c #DDDBD9",
".@	c #E3DEDB",
"+@	c #C3C3C3",
"@@	c #FBF5F1",
"#@	c #FDFAF9",
"$@	c #F8E6DA",
"                                                                                                                                                                            ",
"                                                                                                                                                                            ",
"                                                                                                                                                                            ",
"                                                                                                                                                                            ",
"                                                                                                                                                                            ",
"                                                                                                                                                                            ",
"                                                                                                                                                                            ",
"                                                                                                                                                                            ",
"                                                                                                                                                                            ",
"                                                                                                                                                                            ",
"                                                                                                                                                                            ",
"                                                                                                                                                                            ",
"                                                                                                                                                                            ",
"                                                                                                                                                                            ",
"                                    . .                                                                                                                                     ",
"                                  + . . .                                                                                                                                   ",
"                                . . . . . .                                                                                                                                 ",
"                              + . . . . . . .                                                                                                                               ",
"                            . . . . . . . . +               + . . . . . . . . . .                                                                                           ",
"                            . . . . . . . .             . . . . . . . . . . . . . . . +                                                                                     ",
"                          + . . . . . . .           . . . . . . . . . . . . . . . . . . .                                                                                   ",
"                        @ . . . . . . .           + . . . . . . . . . . . . . . . . . . + . .                                                                               ",
"                        + . . . . @ +           . . . . . . . . . . . . . . . . . . . . . + . .                                                                             ",
"                      . . . . . . . +           . . . . . + . . . @           . . . . . . . . . .                                                                           ",
"                      . . . . . . .           . . . . . . . .                     . . . . . . . .                                                                           ",
"                      . . . . . .             . . . . . . .                           . . @ . +                                                                             ",
"                    . . . . . . .             . . . . . . .                             . .                                                                                 ",
"                    . + . . . .               . . . . . . .                                                                                                                 ",
"                    . . . . . # $ % & * = -   . . . ; > , ' ) ! ~ {       ] ^ ~ / (           _ : : : : < [             ( } | : : : 1 2         3 4 : : : : 5               ",
"                    . . . 6 7 8 9 0 0 0 0 a b c . d e f f g h 0 0 0 i j k l 0 0 0 m n       g 0 0 0 0 0 0 o p       q r s 0 0 0 0 0 0 t     u v w 0 0 0 0 0 x y             ",
"                  @ . . @ z A 0 0 B C D 0 0 f E F G H 0 0 0 w I 0 0 0 J 0 K I 0 0 0 L M     N O 0 0 0 0 0 0 0 P   5 Q 0 0 0 0 0 0 0 R S   T U 0 0 0 0 0 0 R V W             ",
"                  . . . X Y 0 0 Z 3   `  .0 0 ..+.' @.0 0 #.$.%.&.0 0 0 *.=.%.-.0 0 ;.>.. .   ( ( ( ( ( ,.0 0 '.).!.0 0 ~.{.].^.^.^./.    (.0 0 _.( ( ( ( (                 ",
"                  . . :.<.0 0 [.}.|.|.|.1.0 0 2.  3.U 0 o 4.6 . 5.0 0 6.7.@ . 8.0 0 9.0.. d a.b.c.d.e.f.g.0 0 h.i.0 0 j.3                 k.0 0 0 l.m.n.o.b.                ",
"                  . . p.q.0 0 0 0 0 0 0 0 0 0 r.  < 0 0 s.p.. . t.0 0 u.v.. . w.0 0 x.y.z.A.B.f 0 0 0 0 0 0 C.D.E.0 0 F.                  G.H.K 0 0 0 0 0 I.J.              ",
"                  . . K.L.0 0 H M.M.M.M.M.M.N.O.  P.0 0 1.# . Q.R.0 0 N.S.. z.T.0 0 U.V.W.X.0 K Y.Z.`. +.+0 ++( @+0 0 #+                      $+%+(._.&+0 0 X.(             ",
"                  . . %.*+0 0 =+                  @+0 0 -+@ . ;+>+0 0 ,+      '+0 0 ,   )+0 0 <.      !+f 0 ~+  {+0 0 ]+^+                            /+(+0 _+(             ",
"                  . . :+<+0 0 X.M.[+}+|+|+% 1+    2+0 0 3+. . 0.m 0 w 4+      5+0 C.6+  7+0 0 8+  ( 9+0+0 0 a+  b+c+0 0 f d+e+c.f+= g+  ( h+|+|+|+|+i+j+0 0 )+              ",
"                  . . 6 k+l+0 0 0 0 0 0 0 0 m+  ( X.0 s n+. . o+p+0 q+r+    [ C.0 ++    s+0 0 K t+u+f 0 0 0 v+    w+x+0 0 0 0 0 0 0 1.( y+0 0 0 0 0 0 0 0 z+b.              ",
"                  . . . S.A+B+C+6.0 0 0 0 I.D+  ( E+K N.F+. . G+H+R I+      J+K+C.L+    M+N+o 0 0 U )+1.0 O+b+      ).{.P+Q+R+0 R S+T+( c+0 0 0 0 0 U U+V+W+                ",
"                  @ . . . . X+Y+Z+( ( ( ( (       W `+  + . . S. @.@+@        ` @@          #@h+$@).    h+b+              ( ( ( (       ( ( ( ( ( ( (                       ",
"                    . . . . . .                         + . . . . . .                                                                                                       ",
"                    . . . . . + +                       . . . . . . .                   . . .                                                                               ",
"                    @ . . . . . . +                     . . . . . . .                 . . . . .                                                                             ",
"                      . . . . . . .                     . . . . . . .               + . . . . . +                                                                           ",
"                      . . . . . . . +                   . . . . . . .           + . . . . . . . .                                                                           ",
"                        . . . . . . . +                 . . . . . . .         . . . . . . . @ . +                                                                           ",
"                          . @ . . . . @ . .             + . . . . . . . . . . . . . . . . @ . .                                                                             ",
"                            . . . . . . . . . . @         . . . . . . . . + . . . . . . . .                                                                                 ",
"                              . . . . . . . . + . . . . . . . . . . . . . . . . . . . . .                                                                                   ",
"                                . . . . . . . . . . . . . . . . . . . . . . . . . . . .                                                                                     ",
"                                  . . . . . . . . . . . . . . . . . . . . . . + . .                                                                                         ",
"                                      . . . . . . . . . . . . . . . . . . . . .                                                                                             ",
"                                          . . . . . . . . . . . . . . . . .                                                                                                 ",
"                                                @ . . . . . . . . . +                                                                                                       ",
"                                                                                                                                                                            ",
"                                                                                                                                                                            ",
"                                                                                                                                                                            ",
"                                                                                                                                                                            ",
"                                                                                                                                                                            ",
"                                                                                                                                                                            ",
"                                                                                                                                                                            ",
"                                                                                                                                                                            ",
"                                                                                                                                                                            ",
"                                                                                                                                                                            ",
"                                                                                                                                                                            ",
"                                                                                                                                                                            ",
"                                                                                                                                                                            ",
"                                                                                                                                                                            "};
