/* XPM */
static char * emacs_2_xpm[] = {
"86 68 45 1",
" 	c None",
".	c #A13423",
"+	c #1F59B5",
"@	c #9A362B",
"#	c #A23321",
"$	c #37529A",
"%	c #1E59B6",
"&	c #A6331D",
"*	c #155CC0",
"=	c #863C42",
"-	c #A23421",
";	c #7F3E4A",
">	c #A6331E",
",	c #3D5193",
"'	c #6A4461",
")	c #A4331F",
"!	c #97372E",
"~	c #1D59B7",
"{	c #A03425",
"]	c #4F4C80",
"^	c #1C5AB8",
"/	c #3254A0",
"(	c #A13424",
"_	c #A43320",
":	c #3E5193",
"<	c #A23422",
"[	c #2956AA",
"}	c #61476C",
"|	c #1E59B7",
"1	c #1D5AB8",
"2	c #A33321",
"3	c #8B3A3B",
"4	c #2458B0",
"5	c #A7321D",
"6	c #2757AC",
"7	c #454F8B",
"8	c #1A5ABB",
"9	c #7C3F4C",
"0	c #734156",
"a	c #1F59B6",
"b	c #A8331C",
"c	c #1B5BBA",
"d	c #444F8C",
"e	c #7E3E4A",
"f	c #694463",
"                                                                                      ",
"                                                                                      ",
"                                                                     ....             ",
"                                                                    ......            ",
"                     ..                                            ........           ",
"                   ......     ....                                .........           ",
"                  ........  ........                              .........           ",
"                 ....................                            ..   .....           ",
"                ......................                           ..    ....           ",
"       .       ....  ..................                         ..      ...           ",
"      ..      ....    .......   ........                        ..      ...           ",
"      ...    ....      ....       .......                       .       ...           ",
"      ..........        ...        .......         .          .         ...           ",
"     ..........          .          .......       ..         .          ...           ",
"     .........         .             .......     ..         ..          ...           ",
"      ......          .               .............         .           ..            ",
"       ....           .                ...........   ..   ...           ..            ",
"                     .                  ..........  ........            ..            ",
"                    .                    ........   ........            ..            ",
"                   ..             .       ......   ........             .             ",
"                   .             ...               .......              .             ",
"                  .             .....               ....               ..             ",
"                 .           . ......                                  ..             ",
"                 .         ..  ......                                  .              ",
"                .         ..    ......                                 .              ",
"               ..        ..      .....                                ..              ",
"               .        ..        ....                                .               ",
"              ..      ....        ....                                .               ",
"              ..     ...          ....                               ..               ",
"             ..........            ...                               .                ",
"             .........             ...                               .                ",
"             ........     ++++++   ..                                .                ",
"             ......     +++++++    ..                               .                 ",
"              ...     +++++ +++    ..                               .                 ",
"                    ++++    +      .                  .             .                 ",
"                   +++     +                          .            ..                 ",
"                 +++      +                          .             .                  ",
"                +++      +                           .             .                  ",
"               ++                                   .              .                  ",
"              ++                                   ..             ..                  ",
"             ++                                    .              .                   ",
"           ++                      .              ..              .                   ",
"           ++        +            .               .               .                   ",
"          +++      ++             .              ..              ..                   ",
"         +++++++++++             ..             ..               ..                   ",
"         +++++++++               .          .  ...               ..                   ",
"         ++++++++               ..         ......                .                    ",
"         ++++++                ..         ......                 .                    ",
"           ++                 ...         ......                ..              +     ",
"          ++            +     .@     +++ ......     ++          ..   +++     +++      ",
"         ++           +++    #.$%  ++++%&......   +++           .. ++      +++        ",
"        ++          ++++   *=-;%  +++++ ..  .   +++   ++        >,++     ++++         ",
"       ++          +++++  +')!~++++++++{.      +++   ++         ]^      +++++++++++   ",
"      ++          +++++  %/(_:+++  +++ <      ++    +++        +++             +++++  ",
"     ++          ++ ++  +[-<}|++   ++1 .    +++    ++++       +++                +++  ",
"    ++         ++  +++ + 2.3^+++  +++4_    +++    ++++       +++                 +++  ",
"    ++        ++   ++++ 5..6+++   +++7_  +++++    +++++     +++++                +++  ",
"   +++       ++   ++++  .. %++    ++890|++++++    +++++  ++++++++               +++   ",
"  ++++     +++    +++  ..)+++    +++abc+  +++++   ++++++++ ++++++++++    ++    ++     ",
"  +++++ +++++    +++  ... ++     +++de%  +++++    ++++++    ++++++      +++++         ",
" ++++++++++      ++   .. ++       ++f    +++       +++                                ",
" +++++++++      ++   ..                                                               ",
"  ++++++        +   ...                                                               ",
"   +++             ...                                                                ",
"                   ..                                                                 ",
"                  ...                                                                 ",
"                  ..                                                                  ",
"                 ..                                                                   "};
