/* XPM */
static char *surf[] = {
/* columns rows colors chars-per-pixel */
"48 48 7 1",
"  c black",
". c gray11",
"X c #202020",
"o c gray13",
"O c #222222",
"+ c #232323",
"@ c None",
/* pixels */
"@@@@@@@@@@@@@@@@@@@@@@@@@@@@@@@@@@@@@@@@@@@@@@@@",
"@@@@@@@@@@@@@@@@@@@@@@@@@@@@@@@@@@@@@@@@@@@@@@@@",
"@@@@@@@@@@@@@@@@@@@@@@@@@@@@@@@@@@@@@@@@@@@@@@@@",
"@@@@@@@@@@@@@@@@@@@@@@@@@@@@@@@@@@@@@@@@@@@@@@@@",
"@@@@@@@@@@@@@@@@@@@@@@@@@@@@@@@@@@@@@@@@@@@@@@@@",
"@@@@@@@@@@@@@@@@@@@@@@@@@@@@@@@@@@@@@@@@@@@@@@@@",
"@@@@@@@@@@@@@@@@@@@@@@@@@@@@@@@@@@@@@@@@@@@@@@@@",
"@@@@@@@@@@@@@@@@@@@@@@@@@@@@@@@@@@@@@@@@@@@@@@@@",
"@@@@@@@@@@@@@@@@@@@@@@@@@@@@@@@@@@@@@@@@@@@@@@@@",
"@@@@@@@@@@@@@@@@@@@@@@@@@@@@@@@@@@@@@@@@@@@@@@@@",
"@@@@@@@@@@@@@@@@@@@@@@@@@@@@@@@@@@@@@@@@@@@@@@@@",
"@@@@@@@@@@@@@@@@@@@@@@@@@@@@@@@@@@@@@@@@@@@@@@@@",
"@@@@@@@@@@@@@@@@@@@@@@@@@@@@@@@@@@@@@@@OOOOOOOOO",
"@@@@@@@@@@@@@@@@@@@@@@@@@@@@@@@@@@@@@@@OOOOOOOOO",
"@@@@@@@@@@@@@@@@@@@@@@@@@@@@@@@@@@@@@@@OOOOOOOOO",
"@@@@@@@@@@@@@@@@@@@@@@@@@@@@@@@@@@@@@@@OOOOOOOOO",
"@@@@@@@@@@@@@@@@@@@@@@@@@@@@@@@@@@@@@@@OOOOO++++",
"@@@@@@@@@@@@@@@@@@@@@@@@@@@@@@@@@@@@@@@OOOOO@@@@",
"@@@@@@@@@@@@@@@@@@@@@@@@@@@@@@@@@@@@@@@OOOOO@@@@",
"@@@@@@@@@@@@@@@@@@@@@@@@@@@@@@@@@@@@@@@OOOOO@@@@",
"@@@@X++++++++++++o@@@.++++++++++++++++++OOOO++++",
"@@@@OOOOOOOOOOOOOo@@@oOOOOOOOOOOOOOOOOOOOOOOOOOO",
"@@@@OOOOOOOOOOOOOo@@@oOOOOOOOOOOOOOOOOOOOOOOOOOO",
"@@@@OOOOOOOOOOOOOo@@@oOOOOOOOOOOOOOOOOOOOOOOOOOO",
"@@@@OOOOOOOOOOOOOo@@@oOOOOOOOOOOOOOOOOOOOOOOOOOO",
"@@@@OOOO+++++OOOOo@@@oOOOO++OOOOO++@@+++OOOO++++",
"@@@@OOOOO@@@@OOOOo@@@oOOOOo@oOOOO@@@@@@OOOOO@@@@",
"@@@@OOOOO@@@@OOOOo@@@oOOOOo@oOOOO@@@@@@OOOOO@@@@",
"@@@@OOOOO@@@@OOOOo@@@oOOOOo@oOOOO@@@@@@OOOOO@@@@",
"++++OOOOO@@@@OOOOO+++oOOOOo@oOOOO@@@@@@OOOOO@@@@",
"OOOOOOOOO@@@@OOOOOOOOOOOOOo@oOOOO@@@@@@OOOOO@@@@",
"OOOOOOOOO@@@@OOOOOOOOOOOOOo@oOOOO@@@@@@OOOOO@@@@",
"OOOOOOOOO@@@@OOOOOOOOOOOOOo@oOOOO@@@@@@OOOOO@@@@",
"OOOOOOOOO@@@@OOOOOOOOOOOOOo@oOOOO@@@@@@OOOOO@@@@",
"@@@@@@@@@@@@@@@@@@@@@@@@@@@@@@@@@@@@@@@@@@@@@@@@",
"@@@@@@@@@@@@@@@@@@@@@@@@@@@@@@@@@@@@@@@@@@@@@@@@",
"@@@@@@@@@@@@@@@@@@@@@@@@@@@@@@@@@@@@@@@@@@@@@@@@",
"@@@@@@@@@@@@@@@@@@@@@@@@@@@@@@@@@@@@@@@@@@@@@@@@",
"@@@@@@@@@@@@@@@@@@@@@@@@@@@@@@@@@@@@@@@@@@@@@@@@",
"@@@@@@@@@@@@@@@@@@@@@@@@@@@@@@@@@@@@@@@@@@@@@@@@",
"@@@@@@@@@@@@@@@@@@@@@@@@@@@@@@@@@@@@@@@@@@@@@@@@",
"@@@@@@@@@@@@@@@@@@@@@@@@@@@@@@@@@@@@@@@@@@@@@@@@",
"@@@@@@@@@@@@@@@@@@@@@@@@@@@@@@@@@@@@@@@@@@@@@@@@",
"@@@@@@@@@@@@@@@@@@@@@@@@@@@@@@@@@@@@@@@@@@@@@@@@",
"@@@@@@@@@@@@@@@@@@@@@@@@@@@@@@@@@@@@@@@@@@@@@@@@",
"@@@@@@@@@@@@@@@@@@@@@@@@@@@@@@@@@@@@@@@@@@@@@@@@",
"@@@@@@@@@@@@@@@@@@@@@@@@@@@@@@@@@@@@@@@@@@@@@@@@",
"@@@@@@@@@@@@@@@@@@@@@@@@@@@@@@@@@@@@@@@@@@@@@@@@"
};
