/* XPM */
static char * template_xpm[] = {
"86 68 44 1",
" 	c None",
".	c #342253",
"+	c #372455",
"@	c #372555",
"#	c #372556",
"$	c #372456",
"%	c #3C2958",
"&	c #3C2959",
"*	c #422D5C",
"=	c #422D5B",
"-	c #46315E",
";	c #46305E",
">	c #4C3561",
",	c #4C3562",
"'	c #4C3462",
")	c #4C3461",
"!	c #503964",
"~	c #503965",
"{	c #563D68",
"]	c #5A406A",
"^	c #5A416A",
"/	c #5A406B",
"(	c #60456E",
"_	c #60446E",
":	c #644971",
"<	c #644970",
"[	c #6A4D74",
"}	c #6E5077",
"|	c #6E5076",
"1	c #6E5177",
"2	c #6E5176",
"3	c #74557A",
"4	c #74547A",
"5	c #78597D",
"6	c #7E5D80",
"7	c #7E5D81",
"8	c #826183",
"9	c #826083",
"0	c #886586",
"a	c #886486",
"b	c #8C6989",
"c	c #926D8D",
"d	c #926D8C",
"e	c #936E8D",
"......................................................................................",
"......................................................................................",
"......................................................................................",
"......................................................................................",
"......................................................................................",
"......................................................................................",
"......................................................................................",
"......................................................................................",
"......................................................................................",
"......................................................................................",
"......................................................................................",
"......................................................................................",
"......................................................................................",
"......................................................................................",
"......................................................................................",
"......................................................................................",
"......................................................................................",
"......................................................................................",
"......................................................................................",
"......................................................................................",
"......................................................................................",
"......................................................................................",
"......................................................................................",
"......................................................................................",
"......................................................................................",
"......................................................................................",
"......................................................................................",
"......................................................................................",
"......................................................................................",
"+@#++@@++$@@+@@+@@@@@@@@@@@++@@@@+@@+++@@++@+@@@+@@+@+@@@@++@++@$+@@@@@@++@@$@@++#@+@@",
"%%%%%%%%%%%%%%%%%%%%%%%%%%%%%&%%%%%%%%%%%%%%%%%%%%%%%%%%%%%%%%%%%%%%%%%%%%%%%%%%%%%%%%",
"*************==***************=******************************************===****=***=*",
"-;;;;;;;;;;;;;;;;;;;;;;;-;;;;;;;;;;;;;;;;;;;;;;;;;;;;;;;;;;;;;;;;;;;;;;;;;;;;;;;;;;;;;",
">,'>',,'>,,),>'',',,,,,',,,>,,,,>,,,,,',,>)),,>,>,>',,>,,,,',,>'>>,>,)>,>,>,>,>,,>,,>>",
"!!!!~!!~!!!~~~!~~!!~!!!!~!!~!~!!~~!!!!!!~~!!~~~~~~!!!!!!~~!~!!!~~~~!!~!~!~!~!!!~!!~!~!",
"{{{{{{{{{{{{{{{{{{{{{{{{{{{{{{{{{{{{{{{{{{{{{{{{{{{{{{{{{{{{{{{{{{{{{{{{{{{{{{{{{{{{{{",
"]]]]]^]]///]]]]]]]^]]/]//]]]]]]]]//]]]]]]]]]]]]/]]]]]]]]]]]]]]]]]]]]]]^^]]/]]]]]]]/]]/",
"((((_((_((((((__(((_((((_((_(__(__((_(((((_(___((((((___((((((((((((((_(((((__(((_(((_",
"::::::<::::::<:::::::::::::<:<:<::::::::::::::<:::::::::<::::::<::::::::::::::<::::::<",
"[[[[[[[[[[[[[[[[[[[[[[[[[[[[[[[[[[[[[[[[[[[[[[[[[[[[[[[[[[[[[[[[[[[[[[[[[[[[[[[[[[[[[[",
"}}}}}}}|}}}}||}}|}11111||}}}|}}}}}}}}}}}}}||}}}}|}}||}}}|}}}|21|}||1}}|}||}}||2}}}}}|}",
"33333444333344333343333334333343443343343333433433334333443333333334443333334334333334",
"55555555555555555555555555555555555555555555555555555555555555555555555555555555555555",
"66666666666666667666666766666666666666666666666666666666666666666666666666666666666666",
"89989999999999999999999999999999999999999999988999999999999999999999999999999999899999",
"00000000000000a0000000a000000aaa000000000aa000aaa00a0000000aa000a0000000aa0000a00000a0",
"bbbbbbbbbbbbbbbbbbbbbbbbbbbbbbbbbbbbbbbbbbbbbbbbbbbbbbbbbbbbbbbbbbbbbbbbbbbbbbbbbbbbbb",
"cddccdddcccdcddcdcdcdccddddddddcddcddccccdcccccccddddddcccdccddcddddcddcdddcdddddddccd",
"eeeeeeeeeeeeeeeeeeeeeeeeeeeeeeeeeeeeeeeeeeeeeeeeeeeeeeeeeeeeeeeeeeeeeeeeeeeeeeeeeeeeee",
"eeeeeeeeeeeeeeeeeeeeeeeeeeeeeeeeeeeeeeeeeeeeeeeeeeeeeeeeeeeeeeeeeeeeeeeeeeeeeeeeeeeeee",
"eeeeeeeeeeeeeeeeeeeeeeeeeeeeeeeeeeeeeeeeeeeeeeeeeeeeeeeeeeeeeeeeeeeeeeeeeeeeeeeeeeeeee",
"eeeeeeeeeeeeeeeeeeeeeeeeeeeeeeeeeeeeeeeeeeeeeeeeeeeeeeeeeeeeeeeeeeeeeeeeeeeeeeeeeeeeee",
"eeeeeeeeeeeeeeeeeeeeeeeeeeeeeeeeeeeeeeeeeeeeeeeeeeeeeeeeeeeeeeeeeeeeeeeeeeeeeeeeeeeeee",
"eeeeeeeeeeeeeeeeeeeeeeeeeeeeeeeeeeeeeeeeeeeeeeeeeeeeeeeeeeeeeeeeeeeeeeeeeeeeeeeeeeeeee",
"eeeeeeeeeeeeeeeeeeeeeeeeeeeeeeeeeeeeeeeeeeeeeeeeeeeeeeeeeeeeeeeeeeeeeeeeeeeeeeeeeeeeee",
"eeeeeeeeeeeeeeeeeeeeeeeeeeeeeeeeeeeeeeeeeeeeeeeeeeeeeeeeeeeeeeeeeeeeeeeeeeeeeeeeeeeeee",
"eeeeeeeeeeeeeeeeeeeeeeeeeeeeeeeeeeeeeeeeeeeeeeeeeeeeeeeeeeeeeeeeeeeeeeeeeeeeeeeeeeeeee",
"eeeeeeeeeeeeeeeeeeeeeeeeeeeeeeeeeeeeeeeeeeeeeeeeeeeeeeeeeeeeeeeeeeeeeeeeeeeeeeeeeeeeee",
"eeeeeeeeeeeeeeeeeeeeeeeeeeeeeeeeeeeeeeeeeeeeeeeeeeeeeeeeeeeeeeeeeeeeeeeeeeeeeeeeeeeeee",
"eeeeeeeeeeeeeeeeeeeeeeeeeeeeeeeeeeeeeeeeeeeeeeeeeeeeeeeeeeeeeeeeeeeeeeeeeeeeeeeeeeeeee",
"eeeeeeeeeeeeeeeeeeeeeeeeeeeeeeeeeeeeeeeeeeeeeeeeeeeeeeeeeeeeeeeeeeeeeeeeeeeeeeeeeeeeee",
"eeeeeeeeeeeeeeeeeeeeeeeeeeeeeeeeeeeeeeeeeeeeeeeeeeeeeeeeeeeeeeeeeeeeeeeeeeeeeeeeeeeeee",
"eeeeeeeeeeeeeeeeeeeeeeeeeeeeeeeeeeeeeeeeeeeeeeeeeeeeeeeeeeeeeeeeeeeeeeeeeeeeeeeeeeeeee",
"eeeeeeeeeeeeeeeeeeeeeeeeeeeeeeeeeeeeeeeeeeeeeeeeeeeeeeeeeeeeeeeeeeeeeeeeeeeeeeeeeeeeee",
"eeeeeeeeeeeeeeeeeeeeeeeeeeeeeeeeeeeeeeeeeeeeeeeeeeeeeeeeeeeeeeeeeeeeeeeeeeeeeeeeeeeeee",
"eeeeeeeeeeeeeeeeeeeeeeeeeeeeeeeeeeeeeeeeeeeeeeeeeeeeeeeeeeeeeeeeeeeeeeeeeeeeeeeeeeeeee",
"eeeeeeeeeeeeeeeeeeeeeeeeeeeeeeeeeeeeeeeeeeeeeeeeeeeeeeeeeeeeeeeeeeeeeeeeeeeeeeeeeeeeee",
"eeeeeeeeeeeeeeeeeeeeeeeeeeeeeeeeeeeeeeeeeeeeeeeeeeeeeeeeeeeeeeeeeeeeeeeeeeeeeeeeeeeeee"};
