/* XPM */
static char *winterm[] = {
/* columns rows colors chars-per-pixel */
"86 68 256 2",
"   c #130B1E",
".  c #0D081B",
"X  c #0C0223",
"o  c #090737",
"O  c #150729",
"+  c #1A0B33",
"@  c #190737",
"#  c #1A122A",
"$  c #1D1537",
"%  c #09133C",
"&  c #1E2134",
"*  c #230E1A",
"=  c #220C37",
"-  c #25172C",
";  c #221434",
":  c #22133B",
">  c #271A39",
",  c #351A36",
"<  c #240F29",
"1  c #20231C",
"2  c #28243A",
"3  c #382539",
"4  c #332A2D",
"5  c #0D1846",
"6  c #1B0646",
"7  c #1E0951",
"8  c #131C49",
"9  c #151D52",
"0  c #19244A",
"q  c #1A2454",
"w  c #1B2459",
"e  c #1A2756",
"r  c #0E204E",
"t  c #1B2761",
"y  c #220A48",
"u  c #250855",
"i  c #2B1B43",
"p  c #281647",
"a  c #2D1952",
"s  c #2A1558",
"d  c #331C47",
"f  c #331B5B",
"g  c #341957",
"h  c #2E1362",
"j  c #320E65",
"k  c #381966",
"l  c #3B1974",
"z  c #2A0963",
"x  c #272647",
"c  c #222B5B",
"v  c #252856",
"b  c #27325A",
"n  c #33224B",
"m  c #372647",
"M  c #342253",
"N  c #3A2657",
"B  c #383346",
"V  c #353659",
"C  c #2D314E",
"Z  c #242D62",
"A  c #293465",
"S  c #3B2466",
"D  c #3D2370",
"F  c #323A69",
"G  c #333C70",
"H  c #2F3974",
"J  c #384474",
"K  c #35406B",
"L  c #401F3D",
"P  c #44283A",
"I  c #4A3238",
"U  c #4C3430",
"Y  c #401E5C",
"T  c #411F42",
"R  c #421C67",
"E  c #431D74",
"W  c #452947",
"Q  c #462A56",
"!  c #47394A",
"~  c #4B3B53",
"^  c #473557",
"/  c #53374A",
"(  c #563957",
")  c #512C51",
"_  c #42226B",
"`  c #462866",
"'  c #472576",
"]  c #493465",
"[  c #53286C",
"{  c #552A7A",
"}  c #583965",
"|  c #583477",
" . c #4A357A",
".. c #643B7A",
"X. c #613B68",
"o. c #594C37",
"O. c #584A2D",
"+. c #665636",
"@. c #48414A",
"#. c #4A4253",
"$. c #594648",
"%. c #574655",
"&. c #5C5552",
"*. c #464664",
"=. c #454A79",
"-. c #594767",
";. c #58576B",
":. c #5E6472",
">. c #634A4B",
",. c #644856",
"<. c #67584A",
"1. c #695956",
"2. c #715C59",
"3. c #725C4F",
"4. c #654768",
"5. c #694875",
"6. c #6A5568",
"7. c #6A5474",
"8. c #714D77",
"9. c #745769",
"0. c #755779",
"q. c #6D6357",
"w. c #73645B",
"e. c #766858",
"r. c #7B715D",
"t. c #72644B",
"y. c #686468",
"u. c #676676",
"i. c #786966",
"p. c #796676",
"a. c #7A7266",
"s. c #7A7577",
"d. c #6F7068",
"f. c #421F83",
"g. c #4A2782",
"h. c #552C81",
"j. c #593586",
"k. c #5A3691",
"l. c #673885",
"z. c #6A3890",
"x. c #465083",
"c. c #6B4687",
"v. c #744A89",
"b. c #764695",
"n. c #785686",
"m. c #7D5494",
"M. c #6B4792",
"N. c #7B6884",
"B. c #777686",
"V. c #706C85",
"C. c #7B49A2",
"Z. c #7D8184",
"A. c #7B87B6",
"S. c #805D7B",
"D. c #84745C",
"F. c #816C69",
"G. c #856B76",
"H. c #877668",
"J. c #877675",
"K. c #917C77",
"L. c #90796B",
"P. c #825A8B",
"I. c #845898",
"U. c #84509A",
"Y. c #8657A3",
"T. c #804FA1",
"R. c #856889",
"E. c #8B6B93",
"W. c #896697",
"Q. c #877388",
"!. c #8B7595",
"~. c #926B99",
"^. c #947889",
"/. c #92729C",
"(. c #947899",
"). c #936E8D",
"_. c #8D65A6",
"`. c #9669A6",
"'. c #986CB2",
"]. c #9876A6",
"[. c #9D72B2",
"{. c #A176AA",
"}. c #A577B6",
"|. c #A470B0",
" X c #AB7DC2",
".X c #8A8278",
"XX c #95856D",
"oX c #988779",
"OX c #948C6F",
"+X c #A3927A",
"@X c #A18B78",
"#X c #A4A07B",
"$X c #8A8294",
"%X c #978785",
"&X c #97859A",
"*X c #9D9187",
"=X c #999293",
"-X c #88828C",
";X c #9C83A8",
":X c #9193B0",
">X c #A48A88",
",X c #A78A9A",
"<X c #A69688",
"1X c #A89696",
"2X c #B1988D",
"3X c #B49C97",
"4X c #A387A9",
"5X c #A587B4",
"6X c #A896A5",
"7X c #B288BC",
"8X c #B59BA5",
"9X c #AD93B5",
"0X c #AAA198",
"qX c #B6A78A",
"wX c #B7A898",
"eX c #BBB198",
"rX c #A8A486",
"tX c #B8A8A5",
"yX c #B9A6B3",
"uX c #BAB2A4",
"iX c #ACA7A7",
"pX c #8D97C7",
"aX c #97A2D2",
"sX c #B38BC3",
"dX c #B1ABCF",
"fX c #ADB7EA",
"gX c #B9C5F2",
"hX c #C2AD9B",
"jX c #C5B49C",
"kX c #C3B38E",
"lX c #C2ABA7",
"zX c #C6ACB5",
"xX c #C3B3A3",
"cX c #CCBBA3",
"vX c #C8B7A8",
"bX c #C8B6B4",
"nX c #D2BDAA",
"mX c #D1BBB4",
"MX c #C9B5C6",
"NX c #CBB0C8",
"BX c #CBC2A8",
"VX c #C9C3B7",
"CX c #D3C2AB",
"ZX c #D6C6B5",
"AX c #DBD1BB",
"SX c #E5D1BB",
"DX c #D9C6C7",
"FX c #D6C9CB",
"GX c #E2CBC6",
"HX c #E5D5C8",
"JX c #E8D5D5",
"KX c #EBD2D6",
"LX c #ECD7E2",
"PX c #F6E4D2",
"IX c #FCEBED",
"UX c #C6CDFF",
/* pixels */
"  2 O & # O ; 2 # 2 # # 4 # 2   4 2   $ 2 2 x + m n : ; > # > , > > Q ; > = > m - # 2 3 - - m 2 m # ; -   2   - O $ O # - , O ; = : ; > 2   -   > X > x X 3 X + $ #   #   @.",
"X # x $ : O ; # m . x - O > > 2 . O $ - $ > i : : > : n i > # > , = p Q i d d = + n n ; B ^ > n n n i x n B 3 m m m i m B   n O p O i X < > # 4   i @ + + @ : O X n X B . B ",
". > @ p X : > X O # 2 X i X O X ; . 2 X O : $ i = : > M i i N N i i d @ : M n n N m i : , = i i @ M n m x m m C B m ^ N ~ O ; = O = p X 3   - # + + @ M O i O i : + $ O   @.",
"O 0 X i 8 + $ m O 2 . > x O > > + > $ i o i y n M m d d ^ N m d ] i N Q d n n n n n m ^ m ! 3 m 0.V.!.N.6X6X=X=X4X&X&X(.&X9.^ # M p : p + > O > ; $ d 8 : a O d X @ O O # #.",
"$ X d + : : p + O > # i X $ i O X > @ 6 M M a n m d Q m d N N p Q d V ^ m Q -.5.;.N.:X:X6X=XbXiX6XiXiXiXiXuXeXuXtXiXtXiXtX6Xm O > = @ > ; O - O + : o @ p O i + + p # > # @.",
"$ > 8 p + p O : $ + i x + p y O n i x $ i : n d d < - < , N ^ ^ ^ 7.(.!.9X6XdXMXdXFXMXMXVXJXVXAXJXHXAXVXAXAXBXAXcXxXxXeXbX8X3 < p : = d m O - ; ; n 6 M O @ p @ n O x O   B ",
"$ V O n O N p $ $ n n $ > y O n + i : n n : n m W %.6.y.yXzXMXFXDXbXBXFXPXHXHXJXHXFXHXHXZXCXAXAXvXVXBXBXBXeXjXeXeXeXjXqXbXtX3 m X d O M O ; ; O n X N O @ p @ d X a + $ # #.",
"2 # a @ a $ p + n $ $ n n @ i p $ m n m m V V.yXMXJXGXJXJXDXHXJXHXVXHXBXZXHXHXAXVXBXBXeXBXjXeXeXeXeXBXeXuXqXeXrXeX#XeX<XwX1X3 # : i @ Q d > , i + n o f @ @ p : i p ; $ # #.",
"$ $ $ M a i @ a @ p n @ M M M + > i ^ 3 m ;.0.1XyXuXZXJXZXJXFXbXxXwXnXeXBXeXeXuXBXuXeXuXBXuXVXuXuXuX0X*X6XiX-X0X1X1X%X=X1X1X3 # d = d Q = p > + + $ p 6 a M O a @ n p # 2 #.",
"2 M p N a 6 p p p @ M p @ p n n > 2 m m %.$X1.s.i.XXZXhXwXtXwXwXxXbXeXoXwXeX1X<X<X<XrX*X=X=X-XiX=X-X=X:X$XZ.s.:.u.B #.p.0XDX3 3 d g = f p d d d : i 7 a p @ y $ p a $ $ $ ! ",
"x N p a a a y ] @ a 6 M N ] n n ; W ! ! ,.%.6.q.<.D.qX+X>X+X<XoXoX*X1X<XOX=X*X*X*X.X%Xs.$X$Xu.u.*.*.*.*.=.=.K C *.: V B.8XtXP W d d g y N d @ O @ p M N M y S p N + p $ ; @.",
"m ^ d a M a N a 6 N a M a g @ d n &X&X&X1Xi.e.1.<.+.eX+XH..XoXs.p.s.s.d.B.s.y.y.&.#.&.;.*.V *.C C V C V v b 0 e b v V !.1XlX4 - Q y Q g @ y d N N N a @ a a p a N o N $ 2 #.",
"B ^ a a M a s p a S a s g ` g N m Q.Q.s.i.$.e.+.t.+.kXOXa.s.u.y.y.:.u.-.V F ] F V C M x v x C v 0 C 0 K A K t J b b V B.=XbX* m d Y g s y Y d N : a p p u M o f 6 @ i i > #.",
"n N p a S 6 f 6 M s p p k k S ^ ^ p.6.&.i.w.3.3.t.+.kX+Xd.Z.-.B x $ v 0 v x Z 9 e e v F A K b A b 0 0 r e e t A r 0 C :.1XtX< ~ = g f y f p p = d @ y y M M y M o p + x # B ",
"B N a N a M y f 6 S 6 f S u g g } N.J.J.2.$.D.O.t.+.@XqXd.Z.*.& x C A A Z 9 t Z A t w c 5 Z q e b K K Z t t A b 0 e 0 :.1XlXP W Q g u g ` = p @ M y a y a a s p 6 M x m # B ",
"m M a S 6 f S s a f f S  .k S @ V 7.p.w.>.r.D.+.D.O.#XqXd.Z.:.2 0 e r c Z H t t Z Z H t t Z Z t r e r A t t r e b V 0 u.=X>XB W d y g k 6 s y M @ n 6 a y y v 7 a @ g + $ #.",
"N N y N s ` 6 D a 6 a u M  .N M V p.J.1.w.e.<.w.3.o.@X@Xt.w.;.$ Z 9 A Z c 9 t Z t t e G w Z w q J e b r t Z t K b e e V.*XbXW ] Y d R k j s s 6 s 6 s 7 v 6 u S s 6 S O m @.",
"V S g ` u h h S f g a y s S 7 a m N.s.<.w.e.>.2.3.>.@X2XD.s.y.x S 9 Z t 9 G 9 F G w c w w F w Z r J t K Z A t t r e e u.*XlX) Y g y s f y j S  .u s s 6 7 f h s u u a p m #.",
"N N f ` S s  .6 _ p _ g a S p N N Q.p.w.3.e.1.3.<.3.XX+Xe.d.:.x Z w Z Z Z Z 9 Z w q F w 9 w w Z r b r Z e J J x.b b b V.<X3X) g Q R g g j D u 6 7 7 H S 7 v 9 h u k p a > B ",
"Q N f k k D l h S N S s Z D a ] N s.i.i.<.F.<.i.>.e.H.+Xt.d.;.x Z Z Z Z 9 Z H 9 A Z q G 9 Z c x.J J x.=.H H r K e c 0 :.%XlX} [ R p k _ u ' s S S h s u s s k D 7 k a N x @.",
"Q S S _ D D l D S S k s S D S S ^ p.s.i.3.e.w.$.w.o.@X+Xr.a.y.0 v Z w 9 J q Z 9 9 A J x.=.x.G G b b K e Z K r K % 0 r B.<XtXW Y ` g [ k u z k f h 7  .h A s D S u s s ] x @.",
"N N k S ' D u D 7 ` 6 _ G S M N ] Q.G.e.<.H.<.i.>.3.XX@Xe.d.u.$ v Z Z w J x.G J x.H e e H 9 A 9 r r e r r e r b v F v :.H.tX) [ ` a ' _ u k y s 6 D D  .Z f D 7 k h a S $ B ",
"` f k k D z l D k g s k D k a M Q !.s.w.3.e.1.i.<.e.H.OXt.d.s.0 A H H H e e w Z A Z Z q A Z w G t J e K t K t b 0 v C u.%XlX) | [ S k u u l R k g.D 7 6 s 7 s 7 D S s a m #.",
"` S l D D l D l ' 7 ' ' D D S S N !.p.F.e.<.i.<.1.3.OX#Xe.a.B.& a Z Z Z w e A q 8 A q K c A w w e e b e e e r e 0 0 0 V.oX8XQ ` _ [ ` R ' k [ u s k _ ' k 6 D ' k u f N x #.",
"] D k ' g.l l g.k 7 h.j '  .h S ^ N.p.i.a.e.r.2.<.e.D.OXO.d.:.C 9 F Z Z A e q Z e F c r e e w Z r e 5 r r pX:XpX0 V C *.rXuX} f | f u ' l j u s u R k u s s u u 7 h g M C #.",
"S S f k g.z f.j h D g.z h k s k N Q.p.w.H.q.1.w.>.e.t.2Xr.d.d.0 Z w w 8 r 8 G A c r c e 9 q q A.fXA.aXaXpXr K e b 0 0 u.*X1X( ` [ f [ { k u E f k j.j s 7 k u l ' l 6 S N ! ",
"` S k j f.z l l k j D z l k k k N !.p.r.q.e.a.w.i.<.XXOXt.d.d.x 8 Z e A 9 w 8 % t e :XaXpXaXaXe 0 0 J % e b e 0 0 K 0 u.*XlX} [ c.[ ` ' E E ' E { E k u y u ' j g.R ' ] C ! ",
"N _ R E l z f.f.' s g.l g.' _ f N !.i.i.H.o.i.q.q.t.<.rX&.q.s.& 6 Z 9 8 pXpX:XpXpXaXr 5 A 9 Z e K r e K J 5 q K b x C u.K.lXQ R | R R { u E [ ' j.E R u _ D ' E u l ` ` N #.",
"f R ' ' j z f.z l k E z l l _ s M (.y.a.r.3.J.<.<.e.e.OXt.q.:.C A pXpXaXq J q 9 e q e K 0 e K e b b b e e 0 c b 5 & b u.K.zXQ j.R R { ' f.E h.R ' E j j k _ h R j { ` c.Q ~ ",
"f _ ' { l l f.l ' k g.j l l ' k ` (.p.H.e.w.w.i.H.$.a.XXr.q.s.& v A Z r 8 e b 8 J r 0 e e b e r % e % r c gXaXgX% =.0 V.J.bXQ | Y [ R j { { E R E h.h...{ _ ' E ' ' ' ` ^ ~ ",
"`  .D ' E l f.l g.u ' l g.' ' _ Q !.p.F.w.D.2.i.&.w.e.XXt.q.d.C 8 a Z e b 8 v e 0 b e 0 r b b dXfXgXfXgXfXb G 0 b % 5 u.%XmXQ | R { R j.E k.{ l.h.E j.R { _ h.h.E k.j.Q V ~ ",
"| | ' E h.z k.z ' g.' l E l j h d 0.%.i.w.a.e.a.e.t.r.r.d.d.:.C 8 e t q q 9 q 9 e 0 gXgXgXfXgX0 0 0 b % A b v F b C C V.%XzX4.m.R R [ z.h.h.{ h.E h.{ { M.{ k.E z.h.l.] Q ~ ",
"[ ` ' E k.g.E ' _ D j.l E E E ` Q 7.p.i.$.a.e.<.<.3.a.oX&.d.B.x $ F 5 t fXfXfXgXgXaXb 0 e A e Z A 0 F v V C 0 C $ x C 6.J.8X7.8.v.b.U.U.{ z.C.{ { b.z.{ E z.h.C.z.z.z.) v.~ ",
"c.R b.' { l g.k.D ' _ R R { R | Q 7.6.p.i.w.3.q.i.t.w.H.&.y.y.2 F fXUXfXt t t t K 0 b 0 A e F Z b 0 V 2 3 & & d.6XyXQ.u.1XbX).v.[ l.l...U.{ z.{ { z.[ b.{ z.z.h.z.T...Y 7.^ ",
"N | { E h.k k.g. .' l j h.{ k d Y 0.p.y.&.d.i.a.1.<.w.F.&.u.:.> x v 9 Z F Z Z q b C e 0 K C 2 & 1 1 4 r.rXrXcX+XVX+X*Xa.^.NXR.} ..U.U.l.U.U.{ U.U.[ z.l.b.z.C.b.z.z.l.v.4.Q ",
"] | b.' M.' k.l  ._ { k R j ` ` Q ^ %.p.2.q.1.i.q.e.a.d.u.s.N.x > v F M v 0 v V 0 V & & # 2 d.iXiXBXeXBX#XqXqXXXD.e.XXoX1XNX0...I.z.z.z.U.z...l.[ z...U.z.'.z.b.U.b.U.0.5.W ",
"} _ M.{ j.k.M.j.k R  .k ' S p p = ^ / 1.i.1.1.a.i.q.d.J.y.$.y.2 x C C 0 x & 2 . . 4 Z.iXiXDXmXlXVXVXK.J.>X.XD.L.D.D.XX>X8XsXP.} l.U.U.l.z.U.l.`.U.b.v.v.[ b.l.U.b.v.[._.n.~ ",
"5.{ | j.b.j.' l g f ' y M 6 p N m , - ~ i.q.1.q.i.e.d.w.a.a.d.4 - 4 & C B ;.iXVXVXuXeXeXuXoXL.F.J.d.oXG.H.^.K.K.K.>X2X>XNX5.X.n.P.v.{ z.b.b.l.v.v...b.b.`.U.U.l.Y.v.v.W.V.#.",
"m.f M.| E ' M.{ R y g 6 S 7 a + n m P 3 I 9.i.q.q.<.q.a.e.O.r.*XrXiXuXVXVXuXVXiX%X=Xs.Q.K.H.F.L.oXD.D.XXL.@X3X^.,XG.{.9.} ) X.0.0.l.z.Y.z.z.I.v.v.U.U.l.b.z._.U.m.I.I.N.N.~ ",
"-.| | l.c.' l j @ g g ` p a M N W W m P I %.,.2.w.q.q.H.t.H.+XeXuXqX*X.XH..X$.d.2.i.i.1.2.i.L.K.H.<X+X+X>X2XL.^.,.) ) ) Q R.( 4.8.5.v.b.b.U.M.n.v.U.U.v.|.U.v.U.`.W.m.W.R.%.",
"v.[ R ` { k j.k ` ` ` 6 S M a Q ] = T , P P ,.F.3.2.e.e.D.t.t.a.2.d.1.J.%.i.i.i.i.G.H.L.K.L.2XL.K.K.L.3.L.U I >.,.,.G.7XNXNX).{.).4.P._.b.c.[.M.v.M.M.Y.v.W.m.I.`.v.`.E.Q.#.",
"n.c.5.M.` R { R R d Q g a 6 g d = T , 3 P P ,X2.i.2.H.r.t.3.>.2.,.p.0.p.G.G.F.K.K.oXL.K.K.L.D.F.F.o.U U P 2.2.<.^.mXlXzXGXzXzX3X,X(.E.m.c._.m.m.v.v.C._.W.W.`.I.I.W.n.E.R.#.",
"c.` | j...f _ k @ Q Q d N = d d Y d 0.sXzX6X,.P i.>.2.F.i.J.G.J.G.&XK.J.^.J.L.K.F.F.2.F.>.,.,.U U U >.I >.D.lXmXnXGXKXlXtXzXtXlXbXNX&XW.W.v.W.`.v.'.'._.I.W.m.W.c.~.7.W.N.! ",
"7.` m.| _ ` ' ` n.Y ] Y d , n Q /.5XNXn.} ) , I ,.G.i.F.H.i.i.1X1X%XQ.%XF.2.F.2.>.2.>.>.) ( P P ,.2.>XlXmXnXGXHXnX2X3XlXzX3X3XwXbXtXyXQ.E.W.n.m.m.m._.m._.I._.n.`.m.R.N.N.~ ",
"n.] ..c.v.R | c.] d d N O 4.N.NXyXsXm W = , d d , , ,.w.t.XXD.r.w.i.6./ $.W I / P I U L / ,.S.F.3XlXnXPXcXZXjXqXvXvXuXxXoX%X<X%XlXbXbXbX;X;XN._._.m._.n.].m.~.R.`.~.m.!.Q.#.",
"` | v.` ` | k S } Q Q d W MXMXNX-.( n i d T = W d * W ,.o.o.o.1.,.B W ) ! 3 , P P I / F.G.L.mXmXmXGXZXhXcXnXjXhXwXnXvX+X<XeXeXuX*XwXbXzXyX$XW.!.n.!.B.n.~.I._.m.`.8.E.!.N.#.",
"!.v.| c.c.M.| ` d -.} W J.MXIX, B ; i ] n + n Q O Q d W 4 B m ^ Q > d = d ) W ,.2.G.>XlXnXmXnXnXZXhXkXhXkXjX0XqX<X<X1X0XeXVXbXuXuX*X0XwXbXMX!._.]././.n.~.{.U.~.W.n.W.R.Q.@.",
"!.c.v.c.| c.c.5.v.] ] , zXJX1.3 > ~ > p V g O d M d O = > m i , d m ) , W 9.F.1XlXmXGXmXSXnXlXhXhXjXSXjX<X<X2XbXwXJ.%XwXuX*XeXbXeXxX*XuXZXyXyX].!.n.0.7.0.8.I.8._.]./.E.N.! ",
"N...c.l.Y | [ Y Y P.) X.KXIX, Q m x n d n N @ o n + M a Q d , , * 4 H.H.<XvXvXHXZXZXmXhXjXlXvXhXnXcXnXcXnXnXhXnXhXhX>X3XtXvXVXqXxX1X<X<XxXlXbXNX6X0.G.P.I.P.`.~.W.`.E.R.!.! ",
"n.} [ R [ v.........( X.NXGX%.! , ! -.d -.V M N N a N v g = Q 6.3XxXjXSXcXCXZXnXvXnXnXAXnXnXnXxXhXkXhXcXnXhXnXnXnX^.K.@XoXrXvXDXqXeXxXwXlXJXLXbX9.4.R.].).~.~.{.~.E.].R.!.~ ",
"P.8.U.U.v.v.c...U.I.X.,.bXJX=X/ #.-.( V a p N p N S 7 N d Q 4.yXGXZXCXjXSXnXCXeXnXmXnXZXvXvXZXnXnXcXcXcXSXnXhXnXnXhXL.2Xr.<XeXjXwXxXxXDXJXG.P W 9X;X/.P.).~.~.`.~.~.(.R.!.@.",
"E.W.I.I.I.v.`...U.W.8.8.^.uXJX$.3 m ~ i m 7.B p M v S S d d W NXMXvXZXjXcXjXcXcXnXnXlXvXvXvXvXxXcXhXcXcXhXhXhXnXnXhXK.3XjXeXjXuXZXGXmXK.3 $./ ) 4.n.P.~.P.P.~.E.W.~.W.!.!.@.",
"R.W.b.b.I._.`.m.|.v.~.4.8XzXIXJXJXIXLXLXMX0.B Q ] V a ] d i 7.6XmXxXVXPXAXeXOX<XxXmXvXeXnXvXvXhXcXhXnXhXnXcXnXnXjXwX>XhX2XvXDXHXlXG.$./ / W 4.E.R.P.].W.R.P.~.I.~.~.W.).$X~ ",
"R.`.'.[.U.`.b.Y. XP.|.0.( ,.6.6.-.6.5.LXLX1X~ W ~ W d ~ ^ Q R.=X8XmXcXcXCXcXoX+X<XwXbXmXvXnXZXCXnXcXnXhXnXkXnXhXlX>XhXmXlXDX1X>.$./ P P ,.4.R.E.W.R.{./.E.].~.~.~.W./.E.!.#.",
"(.7X'.'.I.|.T.`.'.U.{.{.R.W./.7.0.0.!.,XLXFXH.I i.1X6.3 , m -.,X<X1XvXHXZXBXqX<X<XqXeXwXvXjXcXhXhXkXcXnXnXnX2X2X>XmXGXMX6X%./ P W 3 X.) n.;XR.(.).9X/.).~.{.~.`.`.W./.).!.#.",
"N.`._. X`.sXU.[._.}.`.~.v.].5.v.8.R.9.^.LXDXK.hXmX1X%XJ.! ( 3 3 ^.-XwXvXvXBXDXwX*X*X=X3XcXjXjXjXnXnXhX2X@X2XzXzXKXDXlX/ ,.) ) } ) 0.E.W.0./.E.E.0.).).).~././.E.~./.E.!.$X#.",
"Q.`.'.'. XU.|.`.}. XU.7X`.|. X Xn./.0.).,XIXGXPXHXeXSXvXs.6.%.3 ! J.1XuXbXHXuX*XK.wX*X<XoXqXhXcXhX2X2X2XlXKXKXzX,X/ / ) L ( ( ..~.].~.sX].`.~./.E.).!.R./.m.;X/.7XE.R.Q.!.#.",
"!._.'.|.`.Y.'.`.'.`.|.|.|.|._.`.{.~.0.>XlXIXPXnXCXPXBXZX6XG.7.%.3 @.^.J.yXbXFXqXa.%XoXH.xXwX+X2XK.2XlXGXzXzXP ,.L L / ( ) 8.X.S.~.~.5.5.`.~.W.E./.).;X;XB.!.5Xm./.]./.!.!.B ",
"!.W.`.|.|.|.`.`.'.Y.`.|.|.`.'.}.7X~.S.).wX>XlXPXkXPXZXIXIX6Xp.,.P P B ^.=XyXbXwX3X<XvXnXwX2XwX3XnXGXzX8XP ,.P ,.) T X.X.9.).(.S./.R.W.W.W.W.~./.]./.]./.].N./.5X].].0.;X&X#.",
"!.`.`.'.}.|.~.|. X|.|.7X_.sX[.W.}.S.8.).,X,X>XHXHXPXGXIXIXIX6X,.7.3 , ! &X1XbXzXlXvXtXlXmXlXKXmXGXG.>.P L ) ) ( X.8.0.5.X.S.).S.)./.~.~.E.E.].`.].W.].W.].5XsX;X].9X;X].$X#.",
"!.].`._.|.|.|.|.|.|.|.~.`.].}.7X~.X.8.R.) ,XG.2XbXKXIXIXGXMXtXQ.( 0.^ W W 4X8XzXmXlXlXmXKXzXzX) ) L ) P 4.) 8.4.5.5.P./.(.).).).R.R.P.)./.].].E.5X/.5X;X].B.'.[.]./.;X;X!.B ",
"Q.].[._.U.|.|.`.|.~.7X|.}.{.P.~.7X`.5.} ,.9.G.,X2X3XPXGXmXtX8XQ.-.} 8.M m W J.zXmXZXmXmX).X.) L ) ) X.X.( ) 8.8.R.8.R.8.).X.).).4X).(.).E././.E.].(.5X;X/.;X5X;X5X/.9X;X!.@.",
"(.;X[.[.|.|.`.|.|.Y.|.~.`.`._.I.U.P.S...S.L ,.2.3X>XlX3XoXoX&Xp.4.n.-.| 5.W 3 ^.zX2XF.U ) X.) ) T X.) X.P.P.0.0.4.R.R.).7XP.S.~.W.{.E.).R.!./.).&X&X].(./.].5X].5X].;X&X&X#.",
"!./.`.].|.~.|.U.`.|.U.P.~.`.`.`.|.v.X.P.4.8.G.L G.3X3X>X,XF.2.7.7.} } n.} ) 3 3 9.>.>.P ) ) T ..8.S.X.8.~.8.~.0.E.(.R.(.~.8.I.~.R.E.).).(.4X4X&X;X;X4X5X:X5X;X/.5X:X;X;X$X#.",
"&X/.].W.].sX`.5XsX|.7X7X~.'._.[.`.[.m.8.n.8.4.4./ ,X9.G.9.,.G.4.N.4.n.0.5.} ( Q W Q W W 7.8.4.5.5.7.0.E.E.E.0.0.0.R.0.E.(.).n.0.R.E./.(.E.E././.]././.!.;X;X;X;X(.&X$X&X=X@.",
"!.;X:X].R.;XW.P.W.P.E.P.].`.[.].5X].W.8.X.Q X.L X.8.8.9.S.9.9.6.,.4.4.6.7.5.-.} ) Q Q Q 5.4.5.7.0.8.7.0.0.0.7.p.0.p.0.R.R.Q.Q.!.).!.(.(.;X;X].;X;X[.5X5X;X;X;X$X$X!.!.$X$X4 ",
"6X$X&X5X9X9X;X5X5X/./.4X/./.].!.;X/./.n./.R.R.7.S.,.p.6.6.9.%.6.%.9.-.p.7.7.7.7.5.-.5.-.4.;.7.6.p.p.N.Q.p.p.0.p.p.Q.p.G.%.6.p.G.Q.Q.Q.Q.!.!.Q.!.B./.!.!.!.!.!.!.Q.B.Q.-Xs.%.",
"&.#.#.#.V ~ ~ ^ ~ ( / ( ( ( ~ ( ^ ( ~ ~ ~ %.W ( / / $.@.@.@.! #.! @.@./ ! ! #.~ ^ ~ ~ ~ ~ ~ ! ! ~ ! #.%.#.! ! #.! ! ! ! B ! @.%.#.#.~ ~ ! ~ ~ ~ ~ #.^ ^ ~ ~ ~ ~ ! ! ! @.B @."
};
