/* XPM */
/* $XConsortium: code.xpm /main/4 1995/07/18 16:03:11 drk $ */
static char * code [] = {
/* width height ncolors cpp [x_hot y_hot] */
"32 40 5 1 0 0",
/* colors */
" 	s topShadowColor	m white	c #c8c8c8c8c8c8",
".	s iconColor2	m white	c white",
"X	s bottomShadowColor	m black	c #646464646464",
"o	s selectColor	m white	c #7d7d7d7d7d7d",
"O	s iconColor1	m black	c black",
/* pixels */
"                                ",
" ..............................X",
" ..............................X",
" ...oo.........................X",
" ..o...........................X",
" ..o...........................X",
" ..o........................o..X",
" .o............................X",
" ..o.....ooooooo.ooo..oo.o..o..X",
" ..o.......................o...X",
" ..o...........................X",
" ...oo....................O....X",
" ..............................X",
" ........ooo..ooooooo.oo..O....X",
" ........................O.....X",
" ..............................X",
" .........................O....X",
" ..............................X",
" ........OOOOOOOO.OO..O...O....X",
" ........................O.....X",
" ..............................X",
" ...oo.........................X",
" .....o........................X",
" .....o........................X",
" .....o........................X",
" ......o.......................X",
" .....o........................X",
" .....o........................X",
" .....o........................X",
" ...oo.........................X",
" ..............................X",
" ..............................X",
" ..............................X",
" ..............................X",
" ..............................X",
" ..............................X",
" ..............................X",
" ..............................X",
" ..............................X",
" XXXXXXXXXXXXXXXXXXXXXXXXXXXXXXX"};
