/* XPM */
/* $XConsortium: dir.xpm /main/4 1995/07/18 16:03:18 drk $ */
static char * dir [] = {
/* width height ncolors cpp [x_hot y_hot] */
"48 32 5 1 0 0",
/* colors */
" 	s none	m none	c none",
".	s topShadowColor	m white	c #c8c8c8c8c8c8",
"X	s iconColor5	m black	c blue",
"o	s background	m black	c #969696969696",
"O	s bottomShadowColor	m black	c #646464646464",
/* pixels */
"                                                ",
"  ...............                               ",
" .XXXXXXXXXXXXXXX.                              ",
" .XXXXXXXXXXXXXXX.                              ",
" .XXXXXXXXXXXXXXX.............................. ",
" .XXXXXXXXXXXXXXX.oooooooooooooooooooooooooooooO",
" .XXXXXXXXXXXXXXX.oooooooooooooooooooooooooooooO",
".................ooooooooooooooooooooooooooooooO",
".ooooooooooooooooooooooooooooooooooooooooooooooO",
".ooooooooooooooooooooooooooooooooooooooooooooooO",
".ooooooooooooooooooooooooooooooooooooooooooooooO",
".ooooooooooooooooooooooooooooooooooooooooooooooO",
".ooooooooooooooooooooooooooooooooooooooooooooooO",
".ooooooooooooooooooooooooooooooooooooooooooooooO",
".ooooooooooooooooooooooooooooooooooooooooooooooO",
".ooooooooooooooooooooooooooooooooooooooooooooooO",
".ooooooooooooooooooooooooooooooooooooooooooooooO",
".ooooooooooooooooooooooooooooooooooooooooooooooO",
".ooooooooooooooooooooooooooooooooooooooooooooooO",
".ooooooooooooooooooooooooooooooooooooooooooooooO",
".ooooooooooooooooooooooooooooooooooooooooooooooO",
".ooooooooooooooooooooooooooooooooooooooooooooooO",
".ooooooooooooooooooooooooooooooooooooooooooooooO",
".ooooooooooooooooooooooooooooooooooooooooooooooO",
".ooooooooooooooooooooooooooooooooooooooooooooooO",
".ooooooooooooooooooooooooooooooooooooooooooooooO",
".ooooooooooooooooooooooooooooooooooooooooooooooO",
".ooooooooooooooooooooooooooooooooooooooooooooooO",
".ooooooooooooooooooooooooooooooooooooooooooooooO",
".ooooooooooooooooooooooooooooooooooooooooooooooO",
".ooooooooooooooooooooooooooooooooooooooooooooooO",
".OOOOOOOOOOOOOOOOOOOOOOOOOOOOOOOOOOOOOOOOOOOOOOO"};
