/* XPM */
/* $XConsortium: exec.xpm /main/4 1995/07/18 16:03:26 drk $ */
static char * exec [] = {
/* width height ncolors cpp [x_hot y_hot] */
"40 40 3 1 0 0",
/* colors */
" 	s none	m none	c none",
".	s iconColor5	m black	c blue",
"X	s iconColor6	m white	c yellow",
/* pixels */
"                ........                ",
"             ..............             ",
"          ....................          ",
"         X.....................         ",
"        XXX.....................        ",
"      XXXXX.......................      ",
"     XXXXXXX.......................     ",
"     XXXXXXXX......................     ",
"    XXXXXXXXX.......................    ",
"   XXXXXXXXXXX.......................   ",
"  XXXXXXXXXXXX........................  ",
"  XXXXXXXXXXXXX.......................  ",
" XXXXXXXXXXXXXXX....................... ",
" XXXXXXXXXXXXXXX....................... ",
" XXXXXXXXXXXXXXXX...................... ",
" XXXXXXXXXXXXXXXXX..................... ",
"XXXXXXXXXXXXXXXXXX......................",
"XXXXXXXXXXXXXXXXXXX.....................",
"XXXXXXXXXXXXXXXXXXXX....................",
"XXXXXXXXXXXXXXXXXXXX....................",
"XXXXXXXXXXXXXXXXXXXXX...................",
"XXXXXXXXXXXXXXXXXXXXX...................",
"XXXXXXXXXXXXXXXXXXXXXX..................",
"XXXXXXXXXXXXXXXXXXXXXXX.................",
" XXXXXXXXXXXXXXXXXXXXXX................ ",
" XXXXXXXXXXXXXXXXXXXXXXX............... ",
" XXXXXXXXXXXXXXXXXXXXXXXX.............. ",
" XXXXXXXXXXXXXXXXXXXXXXXX.............. ",
"  XXXXXXXXXXXXXXXXXXXXXXXX............  ",
"  XXXXXXXXXXXXXXXXXXXXXXXXX...........  ",
"   XXXXXXXXXXXXXXXXXXXXXXXX..........   ",
"    XXXXXXXXXXXXXXXXXXXXXXXX........    ",
"     XXXXXXXXXXXXXXXXXXXXXXX.......     ",
"     XXXXXXXXXXXXXXXXXXXXXXXX......     ",
"      XXXXXXXXXXXXXXXXXXXXXXXX....      ",
"        XXXXXXXXXXXXXXXXXXXXXX..        ",
"         XXXXXXXXXXXXXXXXXXXXXX         ",
"          XXXXXXXXXXXXXXXXXXXX          ",
"             XXXXXXXXXXXXXX             ",
"                XXXXXXXX                "};
