/* XPM */
/* $XConsortium: file.xpm /main/4 1995/07/18 16:03:32 drk $ */
static char * file [] = {
/* width height ncolors cpp [x_hot y_hot] */
"32 40 4 1 0 0",
/* colors */
" 	s topShadowColor	m white	c #c8c8c8c8c8c8",
".	s iconColor2	m white	c white",
"X	s bottomShadowColor	m black	c #646464646464",
"o	s background	m black	c #969696969696",
/* pixels */
"                                ",
" ..............................X",
" .o.................o..........X",
" .oooooooooooooo....oooo.......X",
" ...........o..................X",
" .o......o........o............X",
" .oooo...ooo..oooooooooooo.....X",
" ................o.............X",
" .o...o...................o....X",
" .ooooooooooooo...ooooo..oo....X",
" ........o.....................X",
" ..............................X",
" ..............................X",
" ..............................X",
" .o...................o..ooo...X",
" .ooooooooooo..oo..ooooooooo...X",
" ......o.o.....................X",
" ..............................X",
" .o....o......o..oo............X",
" .ooooooooooooo..oooooo..o.....X",
" ..o...........................X",
" ..............................X",
" ..............................X",
" ..............................X",
" ..............................X",
" ..............................X",
" ..............................X",
" ..............................X",
" ..............................X",
" ..............................X",
" ..............................X",
" ..............................X",
" ..............................X",
" ..............................X",
" ..............................X",
" ..............................X",
" ..............................X",
" ..............................X",
" ..............................X",
" XXXXXXXXXXXXXXXXXXXXXXXXXXXXXXX"};
