/* XPM */
/* $XConsortium: none.xpm /main/4 1995/07/18 16:03:39 drk $ */
static char * none [] = {
/* width height ncolors cpp [x_hot y_hot] */
"32 40 5 1 0 0",
/* colors */
" 	s iconColor1	m black	c black",
".	s topShadowColor	m white	c #c8c8c8c8c8c8",
"X	s iconColor2	m white	c white",
"o	s background	m black	c #969696969696",
"O	s bottomShadowColor	m black	c #646464646464",
/* pixels */
"  ............................  ",
"   XXXXXXXXXXXXXXXXXXXXXXXXXX   ",
".   XXXXXXXXXXXXXXXXoXXXXXXX   O",
".X  ooooooooooooXXXXooooXXXX  XO",
".X   XXXXXXXoXXXXXXXXXXXXXX   XO",
".Xo   XXXoXXXXXXXXoXXXXXXX   XXO",
".Xoo   XXoooXXooooooooooo   XXXO",
".XXXX   XXXXXXXXXoXXXXXX   XXXXO",
".XoXXX  XXXXXXXXXXXXXXXX  oXXXXO",
".Xoooo   ooooooXXXooooo   oXXXXO",
".XXXXXX   XXXXXXXXXXXX   XXXXXXO",
".XXXXXXX   XXXXXXXXXX   XXXXXXXO",
".XXXXXXXX  XXXXXXXXXX  XXXXXXXXO",
".XXXXXXXX   XXXXXXXX   XXXXXXXXO",
".XoXXXXXXX   XXXXXX   oXXoooXXXO",
".Xooooooooo   XooX   oooooooXXXO",
".XXXXXXoXoXX   XX   XXXXXXXXXXXO",
".XXXXXXXXXXXX  XX  XXXXXXXXXXXXO",
".XoXXXXoXXXXX      XXXXXXXXXXXXO",
".Xoooooooooooo    oooooXXoXXXXXO",
".XXoXXXXXXXXXX    XXXXXXXXXXXXXO",
".XXXXXXXXXXXX      XXXXXXXXXXXXO",
".XXXXXXXXXXXX  XX  XXXXXXXXXXXXO",
".XXXXXXXXXXX   XX   XXXXXXXXXXXO",
".XXXXXXXXXX   XXXX   XXXXXXXXXXO",
".XXXXXXXXX   XXXXXX   XXXXXXXXXO",
".XXXXXXXX   XXXXXXXX   XXXXXXXXO",
".XXXXXXXX  XXXXXXXXXX  XXXXXXXXO",
".XXXXXXX   XXXXXXXXXX   XXXXXXXO",
".XXXXXX   XXXXXXXXXXXX   XXXXXXO",
".XXXXX   XXXXXXXXXXXXXX   XXXXXO",
".XXXXX  XXXXXXXXXXXXXXXX  XXXXXO",
".XXXX   XXXXXXXXXXXXXXXX   XXXXO",
".XXX   XXXXXXXXXXXXXXXXXX   XXXO",
".XX   XXXXXXXXXXXXXXXXXXXX   XXO",
".X   XXXXXXXXXXXXXXXXXXXXXX   XO",
".X  XXXXXXXXXXXXXXXXXXXXXXXX  XO",
".   XXXXXXXXXXXXXXXXXXXXXXXX   O",
"   XXXXXXXXXXXXXXXXXXXXXXXXXX   ",
"  OOOOOOOOOOOOOOOOOOOOOOOOOOOO  "};
