/* XPM */
/* $XConsortium: obj.xpm /main/4 1995/07/18 16:03:45 drk $ */
static char * obj [] = {
/* width height ncolors cpp [x_hot y_hot] */
"32 40 4 1 0 0",
/* colors */
" 	s topShadowColor	m white	c #c8c8c8c8c8c8",
".	s iconColor2	m white	c white",
"X	s bottomShadowColor	m black	c #646464646464",
"o	s selectColor	m white	c #7d7d7d7d7d7d",
/* pixels */
"                                ",
" ..............................X",
" ..............................X",
" ..............................X",
" ..............................X",
" ..............................X",
" ..............................X",
" ..............................X",
" ..............................X",
" ..............................X",
" ..............................X",
" ..............................X",
" ..............................X",
" ..............................X",
" ..............................X",
" ..............................X",
" ...........oooooooooooooo.....X",
" ..........oooooooooooooooo....X",
" .........oo..............oo...X",
" ........oo................oo..X",
" ........oo................oo..X",
" ........oo................oo..X",
" ........oo................oo..X",
" ........oo................oo..X",
" ........oo................oo..X",
" ........oo................oo..X",
" ........oo................oo..X",
" ........oo................oo..X",
" ........oo................oo..X",
" ........oo................oo..X",
" ........oo................oo..X",
" ........oo................oo..X",
" .....o..oo................oo..X",
" ....ooo..oo..............oo...X",
" ...ooooo..oooooooooooooooo....X",
" ....ooo.....oooooooooooo......X",
" .....o........................X",
" ..............................X",
" ..............................X",
" XXXXXXXXXXXXXXXXXXXXXXXXXXXXXXX"};
