/* XPM */
/* $XConsortium: pix.xpm /main/4 1995/07/18 16:03:51 drk $ */
static char * pix [] = {
/* width height ncolors cpp [x_hot y_hot] */
"32 40 9 1 0 0",
/* colors */
" 	s topShadowColor	m white	c #c8c8c8c8c8c8",
".	s iconColor2	m white	c white",
"X	s bottomShadowColor	m black	c #646464646464",
"o	s iconColor3	m black	c red",
"O	s iconColor7	m white	c cyan",
"+	s iconGray1	m white	c #e1e1e1e1e1e1",
"@	s iconColor5	m black	c blue",
"#	s iconColor4	m white	c green",
"$	s iconColor8	m black	c magenta",
/* pixels */
"                                ",
" ..............................X",
" ..............................X",
" ..oooooOOOOO+++++.............X",
" ..oooooOOOOO+++++.............X",
" ..oooooOOOOO+++++.............X",
" ..oooooOOOOO+++++.............X",
" ..oooooOOOOO+++++.............X",
" ..@@@@@ooooo#####.............X",
" ..@@@@@ooooo#####.............X",
" ..@@@@@ooooo#####.............X",
" ..@@@@@ooooo#####.............X",
" ..@@@@@ooooo#####.............X",
" ..ooooo@@@@@$$$$$.............X",
" ..ooooo@@@@@$$$$$.............X",
" ..ooooo@@@@@$$$$$.............X",
" ..ooooo@@@@@$$$$$.............X",
" ..ooooo@@@@@$$$$$.............X",
" ..............................X",
" ..............................X",
" ..............................X",
" ..............................X",
" ..............................X",
" ..............................X",
" ..............................X",
" ..............................X",
" ..............................X",
" ..............................X",
" ..............................X",
" ..............................X",
" ..............................X",
" ..............................X",
" ..............................X",
" ..............................X",
" ..............................X",
" ..............................X",
" ..............................X",
" ..............................X",
" ..............................X",
" XXXXXXXXXXXXXXXXXXXXXXXXXXXXXXX"};
