/* XPM */
/* $XConsortium: s_pix.xpm /main/4 1995/07/18 16:04:29 drk $ */
static char * s_pix [] = {
/* width height ncolors cpp [x_hot y_hot] */
"16 16 9 1 0 0",
/* colors */
" 	s topShadowColor	m white	c #c8c8c8c8c8c8",
".	s bottomShadowColor	m black	c #646464646464",
"X	s none	m none	c none",
"o	s foreground	m white	c white",
"O	s iconColor3	m black	c red",
"+	s iconColor7	m white	c cyan",
"@	s iconGray1	m white	c #e1e1e1e1e1e1",
"#	s iconColor5	m black	c blue",
"$	s iconColor4	m white	c green",
/* pixels */
"           .XXXX",
" oooooooooo.XXXX",
" oOOO+++@@o.XXXX",
" oOOO+++@@o.XXXX",
" oOOO+++@@o.XXXX",
" o###OOO$$o.XXXX",
" o###OOO$$o.XXXX",
" o###OOO$$o.XXXX",
" oOOO$$$++o.XXXX",
" oOOO$$$++o.XXXX",
" oOOO$$$++o.XXXX",
" oooooooooo.XXXX",
" oooooooooo.XXXX",
" oooooooooo.XXXX",
" oooooooooo.XXXX",
"............XXXX"};
